<svg xmlns="http://www.w3.org/2000/svg" viewBox="0 0 200 200"><defs><style>.cls-1{fill:#fff;}</style></defs><title>Asset 3</title><g id="Layer_2" data-name="Layer 2"><g id="Layer_1-2" data-name="Layer 1"><g id="Vector"><path id="path0_fill" data-name="path0 fill" class="cls-1" d="M8,0H0V8H8Z"/></g><g id="Vector-2" data-name="Vector"><path id="path0_fill-2" data-name="path0 fill" class="cls-1" d="M24,0H16V8h8Z"/></g><g id="Vector-3" data-name="Vector"><path id="path0_fill-3" data-name="path0 fill" class="cls-1" d="M40,0H32V8h8Z"/></g><g id="Vector-4" data-name="Vector"><path id="path0_fill-4" data-name="path0 fill" class="cls-1" d="M56,0H48V8h8Z"/></g><g id="Vector-5" data-name="Vector"><path id="path0_fill-5" data-name="path0 fill" class="cls-1" d="M72,0H64V8h8Z"/></g><g id="Vector-6" data-name="Vector"><path id="path0_fill-6" data-name="path0 fill" class="cls-1" d="M88,0H80V8h8Z"/></g><g id="Vector-7" data-name="Vector"><path id="path0_fill-7" data-name="path0 fill" class="cls-1" d="M104,0H96V8h8Z"/></g><g id="Vector-8" data-name="Vector"><path id="path0_fill-8" data-name="path0 fill" class="cls-1" d="M120,0h-8V8h8Z"/></g><g id="Vector-9" data-name="Vector"><path id="path0_fill-9" data-name="path0 fill" class="cls-1" d="M136,0h-8V8h8Z"/></g><g id="Vector-10" data-name="Vector"><path id="path0_fill-10" data-name="path0 fill" class="cls-1" d="M152,0h-8V8h8Z"/></g><g id="Vector-11" data-name="Vector"><path id="path0_fill-11" data-name="path0 fill" class="cls-1" d="M168,0h-8V8h8Z"/></g><g id="Vector-12" data-name="Vector"><path id="path0_fill-12" data-name="path0 fill" class="cls-1" d="M184,0h-8V8h8Z"/></g><g id="Vector-13" data-name="Vector"><path id="path0_fill-13" data-name="path0 fill" class="cls-1" d="M200,0h-8V8h8Z"/></g><g id="Vector-14" data-name="Vector"><path id="path0_fill-14" data-name="path0 fill" class="cls-1" d="M16,16H8v8h8Z"/></g><g id="Vector-15" data-name="Vector"><path id="path0_fill-15" data-name="path0 fill" class="cls-1" d="M32,16H24v8h8Z"/></g><g id="Vector-16" data-name="Vector"><path id="path0_fill-16" data-name="path0 fill" class="cls-1" d="M48,16H40v8h8Z"/></g><g id="Vector-17" data-name="Vector"><path id="path0_fill-17" data-name="path0 fill" class="cls-1" d="M64,16H56v8h8Z"/></g><g id="Vector-18" data-name="Vector"><path id="path0_fill-18" data-name="path0 fill" class="cls-1" d="M80,16H72v8h8Z"/></g><g id="Vector-19" data-name="Vector"><path id="path0_fill-19" data-name="path0 fill" class="cls-1" d="M96,16H88v8h8Z"/></g><g id="Vector-20" data-name="Vector"><path id="path0_fill-20" data-name="path0 fill" class="cls-1" d="M112,16h-8v8h8Z"/></g><g id="Vector-21" data-name="Vector"><path id="path0_fill-21" data-name="path0 fill" class="cls-1" d="M128,16h-8v8h8Z"/></g><g id="Vector-22" data-name="Vector"><path id="path0_fill-22" data-name="path0 fill" class="cls-1" d="M144,16h-8v8h8Z"/></g><g id="Vector-23" data-name="Vector"><path id="path0_fill-23" data-name="path0 fill" class="cls-1" d="M160,16h-8v8h8Z"/></g><g id="Vector-24" data-name="Vector"><path id="path0_fill-24" data-name="path0 fill" class="cls-1" d="M176,16h-8v8h8Z"/></g><g id="Vector-25" data-name="Vector"><path id="path0_fill-25" data-name="path0 fill" class="cls-1" d="M192,16h-8v8h8Z"/></g><g id="Vector-26" data-name="Vector"><path id="path0_fill-26" data-name="path0 fill" class="cls-1" d="M8,32H0v8H8Z"/></g><g id="Vector-27" data-name="Vector"><path id="path0_fill-27" data-name="path0 fill" class="cls-1" d="M24,32H16v8h8Z"/></g><g id="Vector-28" data-name="Vector"><path id="path0_fill-28" data-name="path0 fill" class="cls-1" d="M40,32H32v8h8Z"/></g><g id="Vector-29" data-name="Vector"><path id="path0_fill-29" data-name="path0 fill" class="cls-1" d="M56,32H48v8h8Z"/></g><g id="Vector-30" data-name="Vector"><path id="path0_fill-30" data-name="path0 fill" class="cls-1" d="M72,32H64v8h8Z"/></g><g id="Vector-31" data-name="Vector"><path id="path0_fill-31" data-name="path0 fill" class="cls-1" d="M88,32H80v8h8Z"/></g><g id="Vector-32" data-name="Vector"><path id="path0_fill-32" data-name="path0 fill" class="cls-1" d="M104,32H96v8h8Z"/></g><g id="Vector-33" data-name="Vector"><path id="path0_fill-33" data-name="path0 fill" class="cls-1" d="M120,32h-8v8h8Z"/></g><g id="Vector-34" data-name="Vector"><path id="path0_fill-34" data-name="path0 fill" class="cls-1" d="M136,32h-8v8h8Z"/></g><g id="Vector-35" data-name="Vector"><path id="path0_fill-35" data-name="path0 fill" class="cls-1" d="M152,32h-8v8h8Z"/></g><g id="Vector-36" data-name="Vector"><path id="path0_fill-36" data-name="path0 fill" class="cls-1" d="M168,32h-8v8h8Z"/></g><g id="Vector-37" data-name="Vector"><path id="path0_fill-37" data-name="path0 fill" class="cls-1" d="M184,32h-8v8h8Z"/></g><g id="Vector-38" data-name="Vector"><path id="path0_fill-38" data-name="path0 fill" class="cls-1" d="M200,32h-8v8h8Z"/></g><g id="Vector-39" data-name="Vector"><path id="path0_fill-39" data-name="path0 fill" class="cls-1" d="M16,48H8v8h8Z"/></g><g id="Vector-40" data-name="Vector"><path id="path0_fill-40" data-name="path0 fill" class="cls-1" d="M32,48H24v8h8Z"/></g><g id="Vector-41" data-name="Vector"><path id="path0_fill-41" data-name="path0 fill" class="cls-1" d="M48,48H40v8h8Z"/></g><g id="Vector-42" data-name="Vector"><path id="path0_fill-42" data-name="path0 fill" class="cls-1" d="M64,48H56v8h8Z"/></g><g id="Vector-43" data-name="Vector"><path id="path0_fill-43" data-name="path0 fill" class="cls-1" d="M80,48H72v8h8Z"/></g><g id="Vector-44" data-name="Vector"><path id="path0_fill-44" data-name="path0 fill" class="cls-1" d="M96,48H88v8h8Z"/></g><g id="Vector-45" data-name="Vector"><path id="path0_fill-45" data-name="path0 fill" class="cls-1" d="M112,48h-8v8h8Z"/></g><g id="Vector-46" data-name="Vector"><path id="path0_fill-46" data-name="path0 fill" class="cls-1" d="M128,48h-8v8h8Z"/></g><g id="Vector-47" data-name="Vector"><path id="path0_fill-47" data-name="path0 fill" class="cls-1" d="M144,48h-8v8h8Z"/></g><g id="Vector-48" data-name="Vector"><path id="path0_fill-48" data-name="path0 fill" class="cls-1" d="M160,48h-8v8h8Z"/></g><g id="Vector-49" data-name="Vector"><path id="path0_fill-49" data-name="path0 fill" class="cls-1" d="M176,48h-8v8h8Z"/></g><g id="Vector-50" data-name="Vector"><path id="path0_fill-50" data-name="path0 fill" class="cls-1" d="M192,48h-8v8h8Z"/></g><g id="Vector-51" data-name="Vector"><path id="path0_fill-51" data-name="path0 fill" class="cls-1" d="M8,64H0v8H8Z"/></g><g id="Vector-52" data-name="Vector"><path id="path0_fill-52" data-name="path0 fill" class="cls-1" d="M24,64H16v8h8Z"/></g><g id="Vector-53" data-name="Vector"><path id="path0_fill-53" data-name="path0 fill" class="cls-1" d="M40,64H32v8h8Z"/></g><g id="Vector-54" data-name="Vector"><path id="path0_fill-54" data-name="path0 fill" class="cls-1" d="M56,64H48v8h8Z"/></g><g id="Vector-55" data-name="Vector"><path id="path0_fill-55" data-name="path0 fill" class="cls-1" d="M72,64H64v8h8Z"/></g><g id="Vector-56" data-name="Vector"><path id="path0_fill-56" data-name="path0 fill" class="cls-1" d="M88,64H80v8h8Z"/></g><g id="Vector-57" data-name="Vector"><path id="path0_fill-57" data-name="path0 fill" class="cls-1" d="M104,64H96v8h8Z"/></g><g id="Vector-58" data-name="Vector"><path id="path0_fill-58" data-name="path0 fill" class="cls-1" d="M120,64h-8v8h8Z"/></g><g id="Vector-59" data-name="Vector"><path id="path0_fill-59" data-name="path0 fill" class="cls-1" d="M136,64h-8v8h8Z"/></g><g id="Vector-60" data-name="Vector"><path id="path0_fill-60" data-name="path0 fill" class="cls-1" d="M152,64h-8v8h8Z"/></g><g id="Vector-61" data-name="Vector"><path id="path0_fill-61" data-name="path0 fill" class="cls-1" d="M168,64h-8v8h8Z"/></g><g id="Vector-62" data-name="Vector"><path id="path0_fill-62" data-name="path0 fill" class="cls-1" d="M184,64h-8v8h8Z"/></g><g id="Vector-63" data-name="Vector"><path id="path0_fill-63" data-name="path0 fill" class="cls-1" d="M200,64h-8v8h8Z"/></g><g id="Vector-64" data-name="Vector"><path id="path0_fill-64" data-name="path0 fill" class="cls-1" d="M16,80H8v8h8Z"/></g><g id="Vector-65" data-name="Vector"><path id="path0_fill-65" data-name="path0 fill" class="cls-1" d="M32,80H24v8h8Z"/></g><g id="Vector-66" data-name="Vector"><path id="path0_fill-66" data-name="path0 fill" class="cls-1" d="M48,80H40v8h8Z"/></g><g id="Vector-67" data-name="Vector"><path id="path0_fill-67" data-name="path0 fill" class="cls-1" d="M64,80H56v8h8Z"/></g><g id="Vector-68" data-name="Vector"><path id="path0_fill-68" data-name="path0 fill" class="cls-1" d="M80,80H72v8h8Z"/></g><g id="Vector-69" data-name="Vector"><path id="path0_fill-69" data-name="path0 fill" class="cls-1" d="M96,80H88v8h8Z"/></g><g id="Vector-70" data-name="Vector"><path id="path0_fill-70" data-name="path0 fill" class="cls-1" d="M112,80h-8v8h8Z"/></g><g id="Vector-71" data-name="Vector"><path id="path0_fill-71" data-name="path0 fill" class="cls-1" d="M128,80h-8v8h8Z"/></g><g id="Vector-72" data-name="Vector"><path id="path0_fill-72" data-name="path0 fill" class="cls-1" d="M144,80h-8v8h8Z"/></g><g id="Vector-73" data-name="Vector"><path id="path0_fill-73" data-name="path0 fill" class="cls-1" d="M160,80h-8v8h8Z"/></g><g id="Vector-74" data-name="Vector"><path id="path0_fill-74" data-name="path0 fill" class="cls-1" d="M176,80h-8v8h8Z"/></g><g id="Vector-75" data-name="Vector"><path id="path0_fill-75" data-name="path0 fill" class="cls-1" d="M192,80h-8v8h8Z"/></g><g id="Vector-76" data-name="Vector"><path id="path0_fill-76" data-name="path0 fill" class="cls-1" d="M8,96H0v8H8Z"/></g><g id="Vector-77" data-name="Vector"><path id="path0_fill-77" data-name="path0 fill" class="cls-1" d="M24,96H16v8h8Z"/></g><g id="Vector-78" data-name="Vector"><path id="path0_fill-78" data-name="path0 fill" class="cls-1" d="M40,96H32v8h8Z"/></g><g id="Vector-79" data-name="Vector"><path id="path0_fill-79" data-name="path0 fill" class="cls-1" d="M56,96H48v8h8Z"/></g><g id="Vector-80" data-name="Vector"><path id="path0_fill-80" data-name="path0 fill" class="cls-1" d="M72,96H64v8h8Z"/></g><g id="Vector-81" data-name="Vector"><path id="path0_fill-81" data-name="path0 fill" class="cls-1" d="M88,96H80v8h8Z"/></g><g id="Vector-82" data-name="Vector"><path id="path0_fill-82" data-name="path0 fill" class="cls-1" d="M104,96H96v8h8Z"/></g><g id="Vector-83" data-name="Vector"><path id="path0_fill-83" data-name="path0 fill" class="cls-1" d="M120,96h-8v8h8Z"/></g><g id="Vector-84" data-name="Vector"><path id="path0_fill-84" data-name="path0 fill" class="cls-1" d="M136,96h-8v8h8Z"/></g><g id="Vector-85" data-name="Vector"><path id="path0_fill-85" data-name="path0 fill" class="cls-1" d="M152,96h-8v8h8Z"/></g><g id="Vector-86" data-name="Vector"><path id="path0_fill-86" data-name="path0 fill" class="cls-1" d="M168,96h-8v8h8Z"/></g><g id="Vector-87" data-name="Vector"><path id="path0_fill-87" data-name="path0 fill" class="cls-1" d="M184,96h-8v8h8Z"/></g><g id="Vector-88" data-name="Vector"><path id="path0_fill-88" data-name="path0 fill" class="cls-1" d="M200,96h-8v8h8Z"/></g><g id="Vector-89" data-name="Vector"><path id="path0_fill-89" data-name="path0 fill" class="cls-1" d="M16,112H8v8h8Z"/></g><g id="Vector-90" data-name="Vector"><path id="path0_fill-90" data-name="path0 fill" class="cls-1" d="M32,112H24v8h8Z"/></g><g id="Vector-91" data-name="Vector"><path id="path0_fill-91" data-name="path0 fill" class="cls-1" d="M48,112H40v8h8Z"/></g><g id="Vector-92" data-name="Vector"><path id="path0_fill-92" data-name="path0 fill" class="cls-1" d="M64,112H56v8h8Z"/></g><g id="Vector-93" data-name="Vector"><path id="path0_fill-93" data-name="path0 fill" class="cls-1" d="M80,112H72v8h8Z"/></g><g id="Vector-94" data-name="Vector"><path id="path0_fill-94" data-name="path0 fill" class="cls-1" d="M96,112H88v8h8Z"/></g><g id="Vector-95" data-name="Vector"><path id="path0_fill-95" data-name="path0 fill" class="cls-1" d="M112,112h-8v8h8Z"/></g><g id="Vector-96" data-name="Vector"><path id="path0_fill-96" data-name="path0 fill" class="cls-1" d="M128,112h-8v8h8Z"/></g><g id="Vector-97" data-name="Vector"><path id="path0_fill-97" data-name="path0 fill" class="cls-1" d="M144,112h-8v8h8Z"/></g><g id="Vector-98" data-name="Vector"><path id="path0_fill-98" data-name="path0 fill" class="cls-1" d="M160,112h-8v8h8Z"/></g><g id="Vector-99" data-name="Vector"><path id="path0_fill-99" data-name="path0 fill" class="cls-1" d="M176,112h-8v8h8Z"/></g><g id="Vector-100" data-name="Vector"><path id="path0_fill-100" data-name="path0 fill" class="cls-1" d="M192,112h-8v8h8Z"/></g><g id="Vector-101" data-name="Vector"><path id="path0_fill-101" data-name="path0 fill" class="cls-1" d="M8,128H0v8H8Z"/></g><g id="Vector-102" data-name="Vector"><path id="path0_fill-102" data-name="path0 fill" class="cls-1" d="M24,128H16v8h8Z"/></g><g id="Vector-103" data-name="Vector"><path id="path0_fill-103" data-name="path0 fill" class="cls-1" d="M40,128H32v8h8Z"/></g><g id="Vector-104" data-name="Vector"><path id="path0_fill-104" data-name="path0 fill" class="cls-1" d="M56,128H48v8h8Z"/></g><g id="Vector-105" data-name="Vector"><path id="path0_fill-105" data-name="path0 fill" class="cls-1" d="M72,128H64v8h8Z"/></g><g id="Vector-106" data-name="Vector"><path id="path0_fill-106" data-name="path0 fill" class="cls-1" d="M88,128H80v8h8Z"/></g><g id="Vector-107" data-name="Vector"><path id="path0_fill-107" data-name="path0 fill" class="cls-1" d="M104,128H96v8h8Z"/></g><g id="Vector-108" data-name="Vector"><path id="path0_fill-108" data-name="path0 fill" class="cls-1" d="M120,128h-8v8h8Z"/></g><g id="Vector-109" data-name="Vector"><path id="path0_fill-109" data-name="path0 fill" class="cls-1" d="M136,128h-8v8h8Z"/></g><g id="Vector-110" data-name="Vector"><path id="path0_fill-110" data-name="path0 fill" class="cls-1" d="M152,128h-8v8h8Z"/></g><g id="Vector-111" data-name="Vector"><path id="path0_fill-111" data-name="path0 fill" class="cls-1" d="M168,128h-8v8h8Z"/></g><g id="Vector-112" data-name="Vector"><path id="path0_fill-112" data-name="path0 fill" class="cls-1" d="M184,128h-8v8h8Z"/></g><g id="Vector-113" data-name="Vector"><path id="path0_fill-113" data-name="path0 fill" class="cls-1" d="M200,128h-8v8h8Z"/></g><g id="Vector-114" data-name="Vector"><path id="path0_fill-114" data-name="path0 fill" class="cls-1" d="M16,144H8v8h8Z"/></g><g id="Vector-115" data-name="Vector"><path id="path0_fill-115" data-name="path0 fill" class="cls-1" d="M32,144H24v8h8Z"/></g><g id="Vector-116" data-name="Vector"><path id="path0_fill-116" data-name="path0 fill" class="cls-1" d="M48,144H40v8h8Z"/></g><g id="Vector-117" data-name="Vector"><path id="path0_fill-117" data-name="path0 fill" class="cls-1" d="M64,144H56v8h8Z"/></g><g id="Vector-118" data-name="Vector"><path id="path0_fill-118" data-name="path0 fill" class="cls-1" d="M80,144H72v8h8Z"/></g><g id="Vector-119" data-name="Vector"><path id="path0_fill-119" data-name="path0 fill" class="cls-1" d="M96,144H88v8h8Z"/></g><g id="Vector-120" data-name="Vector"><path id="path0_fill-120" data-name="path0 fill" class="cls-1" d="M112,144h-8v8h8Z"/></g><g id="Vector-121" data-name="Vector"><path id="path0_fill-121" data-name="path0 fill" class="cls-1" d="M128,144h-8v8h8Z"/></g><g id="Vector-122" data-name="Vector"><path id="path0_fill-122" data-name="path0 fill" class="cls-1" d="M144,144h-8v8h8Z"/></g><g id="Vector-123" data-name="Vector"><path id="path0_fill-123" data-name="path0 fill" class="cls-1" d="M160,144h-8v8h8Z"/></g><g id="Vector-124" data-name="Vector"><path id="path0_fill-124" data-name="path0 fill" class="cls-1" d="M176,144h-8v8h8Z"/></g><g id="Vector-125" data-name="Vector"><path id="path0_fill-125" data-name="path0 fill" class="cls-1" d="M192,144h-8v8h8Z"/></g><g id="Vector-126" data-name="Vector"><path id="path0_fill-126" data-name="path0 fill" class="cls-1" d="M8,160H0v8H8Z"/></g><g id="Vector-127" data-name="Vector"><path id="path0_fill-127" data-name="path0 fill" class="cls-1" d="M24,160H16v8h8Z"/></g><g id="Vector-128" data-name="Vector"><path id="path0_fill-128" data-name="path0 fill" class="cls-1" d="M40,160H32v8h8Z"/></g><g id="Vector-129" data-name="Vector"><path id="path0_fill-129" data-name="path0 fill" class="cls-1" d="M56,160H48v8h8Z"/></g><g id="Vector-130" data-name="Vector"><path id="path0_fill-130" data-name="path0 fill" class="cls-1" d="M72,160H64v8h8Z"/></g><g id="Vector-131" data-name="Vector"><path id="path0_fill-131" data-name="path0 fill" class="cls-1" d="M88,160H80v8h8Z"/></g><g id="Vector-132" data-name="Vector"><path id="path0_fill-132" data-name="path0 fill" class="cls-1" d="M104,160H96v8h8Z"/></g><g id="Vector-133" data-name="Vector"><path id="path0_fill-133" data-name="path0 fill" class="cls-1" d="M120,160h-8v8h8Z"/></g><g id="Vector-134" data-name="Vector"><path id="path0_fill-134" data-name="path0 fill" class="cls-1" d="M136,160h-8v8h8Z"/></g><g id="Vector-135" data-name="Vector"><path id="path0_fill-135" data-name="path0 fill" class="cls-1" d="M152,160h-8v8h8Z"/></g><g id="Vector-136" data-name="Vector"><path id="path0_fill-136" data-name="path0 fill" class="cls-1" d="M168,160h-8v8h8Z"/></g><g id="Vector-137" data-name="Vector"><path id="path0_fill-137" data-name="path0 fill" class="cls-1" d="M184,160h-8v8h8Z"/></g><g id="Vector-138" data-name="Vector"><path id="path0_fill-138" data-name="path0 fill" class="cls-1" d="M200,160h-8v8h8Z"/></g><g id="Vector-139" data-name="Vector"><path id="path0_fill-139" data-name="path0 fill" class="cls-1" d="M16,176H8v8h8Z"/></g><g id="Vector-140" data-name="Vector"><path id="path0_fill-140" data-name="path0 fill" class="cls-1" d="M32,176H24v8h8Z"/></g><g id="Vector-141" data-name="Vector"><path id="path0_fill-141" data-name="path0 fill" class="cls-1" d="M48,176H40v8h8Z"/></g><g id="Vector-142" data-name="Vector"><path id="path0_fill-142" data-name="path0 fill" class="cls-1" d="M64,176H56v8h8Z"/></g><g id="Vector-143" data-name="Vector"><path id="path0_fill-143" data-name="path0 fill" class="cls-1" d="M80,176H72v8h8Z"/></g><g id="Vector-144" data-name="Vector"><path id="path0_fill-144" data-name="path0 fill" class="cls-1" d="M96,176H88v8h8Z"/></g><g id="Vector-145" data-name="Vector"><path id="path0_fill-145" data-name="path0 fill" class="cls-1" d="M112,176h-8v8h8Z"/></g><g id="Vector-146" data-name="Vector"><path id="path0_fill-146" data-name="path0 fill" class="cls-1" d="M128,176h-8v8h8Z"/></g><g id="Vector-147" data-name="Vector"><path id="path0_fill-147" data-name="path0 fill" class="cls-1" d="M144,176h-8v8h8Z"/></g><g id="Vector-148" data-name="Vector"><path id="path0_fill-148" data-name="path0 fill" class="cls-1" d="M160,176h-8v8h8Z"/></g><g id="Vector-149" data-name="Vector"><path id="path0_fill-149" data-name="path0 fill" class="cls-1" d="M176,176h-8v8h8Z"/></g><g id="Vector-150" data-name="Vector"><path id="path0_fill-150" data-name="path0 fill" class="cls-1" d="M192,176h-8v8h8Z"/></g><g id="Vector-151" data-name="Vector"><path id="path0_fill-151" data-name="path0 fill" class="cls-1" d="M8,192H0v8H8Z"/></g><g id="Vector-152" data-name="Vector"><path id="path0_fill-152" data-name="path0 fill" class="cls-1" d="M24,192H16v8h8Z"/></g><g id="Vector-153" data-name="Vector"><path id="path0_fill-153" data-name="path0 fill" class="cls-1" d="M40,192H32v8h8Z"/></g><g id="Vector-154" data-name="Vector"><path id="path0_fill-154" data-name="path0 fill" class="cls-1" d="M56,192H48v8h8Z"/></g><g id="Vector-155" data-name="Vector"><path id="path0_fill-155" data-name="path0 fill" class="cls-1" d="M72,192H64v8h8Z"/></g><g id="Vector-156" data-name="Vector"><path id="path0_fill-156" data-name="path0 fill" class="cls-1" d="M88,192H80v8h8Z"/></g><g id="Vector-157" data-name="Vector"><path id="path0_fill-157" data-name="path0 fill" class="cls-1" d="M104,192H96v8h8Z"/></g><g id="Vector-158" data-name="Vector"><path id="path0_fill-158" data-name="path0 fill" class="cls-1" d="M120,192h-8v8h8Z"/></g><g id="Vector-159" data-name="Vector"><path id="path0_fill-159" data-name="path0 fill" class="cls-1" d="M136,192h-8v8h8Z"/></g><g id="Vector-160" data-name="Vector"><path id="path0_fill-160" data-name="path0 fill" class="cls-1" d="M152,192h-8v8h8Z"/></g><g id="Vector-161" data-name="Vector"><path id="path0_fill-161" data-name="path0 fill" class="cls-1" d="M168,192h-8v8h8Z"/></g><g id="Vector-162" data-name="Vector"><path id="path0_fill-162" data-name="path0 fill" class="cls-1" d="M184,192h-8v8h8Z"/></g><g id="Vector-163" data-name="Vector"><path id="path0_fill-163" data-name="path0 fill" class="cls-1" d="M200,192h-8v8h8Z"/></g></g></g></svg>