<svg xmlns="http://www.w3.org/2000/svg" viewBox="0 0 1045 109"><defs><style>.cls-1{fill:#625971;}</style></defs><title>Asset 1</title><g id="Layer_2" data-name="Layer 2"><g id="Layer_1-2" data-name="Layer 1"><g id="Canvas"><g id="Group"><g id="Vector"><path id="path0_fill" data-name="path0 fill" class="cls-1" d="M1025.69,78.88V62.75h-10.78v5.34H995.83V52.15h-39.1v6.9H948.2c0-6.28,0-12.43.12-18.58,0-.5,1.3-1.06,2.25-1.5,2.73-1.13,2.73-3.52.24-4.58a5.56,5.56,0,0,1-2.61-2.26c-.47-1.07-.12-2.2-.12-3.52H916.8c-1.89,2.26,1.19,5.15-4,6.84-.71.19.71,2.33,1.42,3.52.35.63,1.77,1.13,1.77,1.69.12,4.46.12,8.91.12,13.75H894.17v9.16c-.11,6.9-.11,6.9-13.27,6.27a10.9,10.9,0,0,1-2-.5V52.52c0-.88-.47-2.44-1.07-2.44-4.62-.38-3.31-2.2-3.43-3.64-.12-2.7-.48-5.46.12-8.16.59-3-1.31-4.83-6.52-5.71-3.79-.63-5.33-1.88-4.74-4a7.3,7.3,0,0,0-.24-2.76c-.47.13-.94.25-1.3.38-1.3-.94-3.79-2-3.55-2.7,1.42-3.39-5-8,4.62-10.1V0c-1.07,4.77-.95-2.95-1.19,1.82,0,.75-1.06,1.57-1.66,2.32-.71-.69-1.42-1.44-2-2.13a3.84,3.84,0,0,1-.47-1.19c-10.31,2.25-10.31,2.25-10.31,7.84V40c-2.73.19-4.74.38-7.47.57v27.8H828.89V54.78c-2.13-.19-3.79-.37-5.33-.56-.24-1.82-.36-3.45-.47-5.09h-5.34c-.23,1.76-.35,3.39-.59,5.15h-7.23c-.23-1.82-.47-3.45-.71-5.21-9.71-.56-3.55,3.89-7,5.4-1.77-.06-3.79-.13-6.16-.19V49.13H790.5c-.11,1.82-.35,3.46-.47,5.21-2.84.07-5.21.19-8.29.25V71.35h-8.3V54.66H735.29v7.65H723.8V43.55a2.74,2.74,0,0,1,1-1.63c1.06-1.13,2.25-2.2,3.79-3.64-4.86-.13-7.7-.25-11-.32a53.63,53.63,0,0,1,.71-6.46c.24-.81,1.54-1.57,2.37-2.32l-5-.57c-1.06-.12-2.25-.12-3.67-.25V21.71c-9.12-2.51-9.12-7.59-13.27-11.54-2.84,4.45-4.15,9-12.79,11.73v6.71h-5.57c-3.32,0-3.32.95-2.61,2.26,1.19,2.26,2.25,4.58,3.67,7.35h-10.9c.12,1.25-.35,2.82.36,3,5.8,1.32,3,3.89,3.32,5.9.47,2.82.11,5.64.11,8.47V73.36h-7.22V58.17H645.48c-7.94.06-8.05.19-8.05,4.52.11,5.84.11,11.67.11,17.51a10.28,10.28,0,0,1-.71,2.57c-.59-.06-1.3-.06-1.89-.13V73.8c-4.39-.13-7.94-.25-12.32-.44V29.87H611.24a29.1,29.1,0,0,1-1.18,3.2H592.64c-.36-1.25-.59-2.2-.95-3.2-4.26-.13-8.17-.25-11.85-.31-.35-1.32-.59-2.33-.94-3.33-.6-.13-1.31-.19-1.9-.31-.71.94-1.9,1.88-1.9,2.82C575,39.91,575,51.14,575,62.31c0,1.07-.24,2.2-.36,3.52H561.24v5.52c0,3.2,0,3.2-6,2.76V56.73H530.56V78.88H514V62.75H503.19v5.34H484.11V52.15H445v6.9h-8.53c0-6.28,0-12.43.12-18.58,0-.5,1.3-1.06,2.25-1.5,2.73-1.13,2.73-3.52.24-4.58a5.56,5.56,0,0,1-2.61-2.26c-.47-1.07-.12-2.2-.12-3.52H405.09c-1.9,2.26,1.18,5.15-4,6.84-.71.19.71,2.33,1.42,3.52.35.63,1.78,1.13,1.78,1.69.11,4.46.11,8.91.11,13.75H382.46v9.16c-.12,6.9-.12,6.9-13.27,6.27a10.77,10.77,0,0,1-2-.5V52.52c0-.88-.47-2.44-1.06-2.44-4.63-.38-3.32-2.2-3.44-3.64-.12-2.7-.47-5.46.12-8.16.59-3-1.31-4.83-6.52-5.71-3.79-.63-5.33-1.88-4.74-4a7.5,7.5,0,0,0-.23-2.76c-.48.13-.95.25-1.31.38-1.3-.94-3.79-2-3.55-2.7,1.42-3.39-5-8,4.62-10.1V0c-1.07,4.77-.95-2.95-1.19,1.82,0,.75-1.06,1.57-1.66,2.32-.71-.69-1.42-1.44-2-2.13a4.11,4.11,0,0,1-.47-1.19c-10.31,2.25-10.31,2.25-10.31,7.84V40c-2.73.19-4.74.38-7.47.57v27.8H317.17V54.78c-2.13-.19-3.79-.37-5.33-.56-.24-1.82-.35-3.45-.47-5.09H306c-.24,1.76-.36,3.39-.6,5.15h-7.22c-.24-1.82-.48-3.45-.71-5.21-9.72-.56-3.56,3.89-7,5.4-1.78-.06-3.8-.13-6.17-.19V49.13h-5.56c-.12,1.82-.36,3.46-.48,5.21-2.84.07-5.21.19-8.29.25V71.35h-8.3V54.66H223.57v7.65H212.08V43.55a2.74,2.74,0,0,1,.95-1.63c1.07-1.13,2.25-2.2,3.79-3.64-4.86-.13-7.7-.25-11-.32a53.63,53.63,0,0,1,.71-6.46c.24-.81,1.54-1.57,2.37-2.32l-5-.57c-1.06-.12-2.25-.12-3.67-.25V21.71c-9.12-2.51-9.12-7.59-13.27-11.54-2.84,4.45-4.14,9-12.79,11.73v6.71H168.6c-3.32,0-3.32.95-2.61,2.26,1.19,2.26,2.25,4.58,3.67,7.35h-10.9c.12,1.25-.35,2.82.36,3,5.81,1.32,3,3.89,3.32,5.9.47,2.82.12,5.64.12,8.47V73.36h-7.23V58.17H133.76c-7.93.06-8,.19-8,4.52.12,5.84.12,11.67.12,17.51a10.73,10.73,0,0,1-.71,2.57c-.6-.06-1.31-.06-1.9-.13V73.8c-4.38-.13-7.94-.25-12.32-.44V29.87H99.52a29.1,29.1,0,0,1-1.18,3.2H80.92c-.35-1.25-.59-2.2-1-3.2-4.26-.13-8.17-.25-11.84-.31-.36-1.32-.6-2.33-.95-3.33-.59-.13-1.3-.19-1.9-.31-.71.94-1.89,1.88-1.89,2.82-.12,11.17-.12,22.4-.12,33.57,0,1.07-.24,2.2-.36,3.52H49.52v5.52c0,3.2,0,3.2-6,2.76V56.73H18.84V86.41H0V109H1045V78.88Z"/></g></g></g></g></g></svg>