<svg xmlns="http://www.w3.org/2000/svg" viewBox="0 0 198.14 189.57"><defs><style>.cls-1{fill:#fff;}.cls-2{fill:#625a71;}.cls-3{fill:#eeedf3;}.cls-4{fill:#eeedf2;}</style></defs><title>Asset 1</title><g id="Layer_2" data-name="Layer 2"><g id="Layer_1-2" data-name="Layer 1"><g id="Layer_2-2" data-name="Layer 2"><g id="Layer_1-2-2" data-name="Layer 1-2"><g id="Canvas"><g id="Group"><rect class="cls-1" x="37.18" y="149.62" width="120.89" height="36.4"/><g id="Vector"><path id="path0_fill" data-name="path0 fill" class="cls-1" d="M195.07,3.07H3.07v114h192Z"/><path id="path1_stroke" data-name="path1 stroke" class="cls-2" d="M3.07,3.07V0H0V3.07Zm192,0h3.07V0h-3.07Zm0,114v3.07h3.07v-3.07Zm-192,0H0v3.07H3.07Zm0-110.91h192V0H3.07ZM192,3.07v114h6.14V3.07ZM195.07,114H3.07v6.14h192Zm-188.93,3V3.07H0v114Z"/></g><g id="Vector-2"><path id="path2_stroke" data-name="path2 stroke" class="cls-2" d="M76.57,139.31h40.71v-6.14H76.57Z"/></g><g id="Vector-3"><path id="path3_stroke" data-name="path3 stroke" class="cls-2" d="M93.86,116v22.73H100V116Z"/></g><g id="Vector-4"><path id="path4_fill" data-name="path4 fill" class="cls-3" d="M133.14,16H60.71v88h72.43Z"/></g><g id="Vector-5"><path id="path5_fill" data-name="path5 fill" class="cls-3" d="M182,185.78c4.91,0,8.89-6.24,8.89-13.94s-4-13.94-8.89-13.94-8.89,6.25-8.89,13.94S177.09,185.78,182,185.78Z"/><path id="path6_stroke" data-name="path6 stroke" class="cls-2" d="M189.2,171.84a16.87,16.87,0,0,1-2.34,8.95c-1.43,2.23-3.18,3.3-4.86,3.3v3.39c3.23,0,5.92-2,7.72-4.87a20.29,20.29,0,0,0,2.87-10.77ZM182,184.09c-1.68,0-3.44-1.07-4.86-3.3a16.87,16.87,0,0,1-2.34-8.95h-3.39a20.2,20.2,0,0,0,2.87,10.77c1.8,2.82,4.48,4.87,7.72,4.87Zm-7.2-12.25a16.81,16.81,0,0,1,2.34-8.94c1.42-2.23,3.18-3.3,4.86-3.3v-3.39c-3.24,0-5.92,2-7.72,4.87a20.19,20.19,0,0,0-2.87,10.76ZM182,159.6c1.68,0,3.43,1.07,4.86,3.3a16.81,16.81,0,0,1,2.34,8.94h3.39a20.28,20.28,0,0,0-2.87-10.76c-1.8-2.82-4.49-4.87-7.72-4.87Z"/></g><g id="Vector-6"><path id="path7_stroke" data-name="path7 stroke" class="cls-2" d="M147.18,137l.71,1.54h0Zm-23.36-21-1.66.32h0v.09a1.1,1.1,0,0,1,.06.26,7,7,0,0,0,.22,1c.19.8.49,2,.9,3.31a48.39,48.39,0,0,0,4,9.51c1.88,3.27,4.45,6.47,7.88,8.27s7.77,2.1,12.65-.17l-1.43-3.07c-4,1.86-7.13,1.55-9.65.23s-4.78-3.94-6.51-6.95a42.62,42.62,0,0,1-3.71-8.81c-.39-1.27-.66-2.33-.85-3.1-.09-.38-.15-.67-.2-.88s0-.17,0-.22v-.06h0Zm24.07,22.55c6.62-3.09,14.79-6.25,21.21-4.74a11.66,11.66,0,0,1,7.81,6.19c2.05,3.73,3.39,9.46,3.39,18h3.39c0-8.86-1.37-15.23-3.81-19.66a15,15,0,0,0-10-7.86c-7.73-1.81-17,2-23.42,5Z"/></g><g id="Vector-7"><path id="path8_stroke" data-name="path8 stroke" class="cls-2" d="M35.43,148.58v-2.5h-2.5v2.5Zm124.39,0h2.5v-2.5h-2.5Zm0,38.49v2.5h2.5v-2.5Zm-124.39,0h-2.5v2.5h2.5Zm0-36H159.82v-5H35.43Zm121.89-2.5v38.49h5V148.58Zm2.5,36H35.43v5H159.82Zm-121.89,2.5V148.58h-5v38.49Z"/></g><g id="Vector-8"><path id="path9_stroke" data-name="path9 stroke" class="cls-4" d="M46.46,160.56H147.18v-3.39H46.46Z"/></g><g id="Vector-9"><path id="path10_stroke" data-name="path10 stroke" class="cls-4" d="M46.46,169.25H147.18v-3.39H46.46Z"/></g><g id="Vector-10"><path id="path11_stroke" data-name="path11 stroke" class="cls-4" d="M46.46,177.93H147.18v-3.38H46.46Z"/></g></g></g></g></g></g></g></svg>