<svg xmlns="http://www.w3.org/2000/svg" viewBox="0 0 190.63 157.76"><defs><style>.cls-1{fill:#fff;}.cls-2{fill:#5e8df7;}.cls-3{fill:#d2e2ff;}</style></defs><title>Asset 1</title><g id="Layer_2" data-name="Layer 2"><g id="Layer_1-2" data-name="Layer 1"><rect class="cls-1" x="2.5" y="2.5" width="185.63" height="119.81"/><path class="cls-2" d="M190.63,124.81H0V0H190.63ZM5,119.81H185.63V5H5Z"/><rect class="cls-3" x="4.83" y="4.78" width="180.73" height="19.39"/><rect class="cls-3" x="109.52" y="34.82" width="58.18" height="43.54"/><rect class="cls-3" x="109.52" y="84.03" width="58.18" height="4.79"/><rect class="cls-3" x="109.52" y="93.27" width="58.18" height="4.79"/><rect class="cls-3" x="21.86" y="34.82" width="73.46" height="73.46"/><rect class="cls-1" x="15.32" y="67.85" width="73.1" height="87.41"/><path class="cls-2" d="M90.92,157.76H12.82V65.35h78.1Zm-73.1-5h68.1V70.35H17.82Z"/><rect class="cls-1" x="125.18" y="90.03" width="36.36" height="65.23"/><path class="cls-2" d="M164.05,157.76H122.68V87.53h41.37Zm-36.37-5h31.37V92.53H127.68Z"/><rect class="cls-3" x="26.47" y="79.57" width="50.81" height="39.92"/><rect class="cls-3" x="26.47" y="127.07" width="50.81" height="22.35"/><rect class="cls-3" x="130.45" y="97.2" width="25.82" height="22.86"/><rect class="cls-3" x="130.45" y="138.88" width="25.82" height="11.15"/><rect class="cls-3" x="130.45" y="123.65" width="11.64" height="11.64"/><rect class="cls-3" x="144.64" y="123.65" width="11.64" height="11.64"/></g></g></svg>