<svg xmlns="http://www.w3.org/2000/svg" viewBox="0 0 185.87 139.87"><defs><style>.cls-1{fill:#fff;}.cls-2{fill:#50bfa2;}.cls-3{fill:#d4ebda;}.cls-4{fill:#51bfa2;}</style></defs><title>Asset 1</title><g id="Layer_2" data-name="Layer 2"><g id="Layer_1-2" data-name="Layer 1"><g id="Canvas"><g id="Group"><g id="Vector"><path id="path0_fill" data-name="path0 fill" class="cls-1" d="M182.93,21.68H2.93V136.93h180Z"/><path id="path1_stroke" data-name="path1 stroke" class="cls-2" d="M2.93,21.68V18.74H0v2.94Zm180,0h2.94V18.74h-2.94Zm0,115.25v2.94h2.94v-2.94Zm-180,0H0v2.94H2.93Zm0-112.32h180V18.74H2.93ZM180,21.68V136.93h5.87V21.68ZM182.93,134H2.93v5.87h180ZM5.87,136.93V21.68H0V136.93Z"/></g><g id="Vector-2" data-name="Vector"><path id="path2_fill" data-name="path2 fill" class="cls-3" d="M91.54,118.49c21,0,38-17.59,38-39.28s-17-39.29-38-39.29-38,17.59-38,39.29S70.56,118.49,91.54,118.49Z"/></g><g id="Vector-3" data-name="Vector"><path id="path3_stroke" data-name="path3 stroke" class="cls-2" d="M126.59,79.21c0,20.17-15.79,36.35-35,36.35v5.86c22.69,0,40.92-19,40.92-42.21Zm-35,36.35c-19.27,0-35.06-16.18-35.06-36.35H50.62c0,23.22,18.22,42.21,40.92,42.21ZM56.48,79.21c0-20.17,15.79-36.35,35.06-36.35V37c-22.7,0-40.92,19-40.92,42.22ZM91.54,42.86c19.26,0,35.05,16.18,35.05,36.35h5.87C132.46,56,114.23,37,91.54,37Z"/></g><g id="Vector-4" data-name="Vector"><path id="path4_fill" data-name="path4 fill" class="cls-1" d="M113.13,21.48H72.74L80.16,2.93h25.16Z"/><path id="path5_stroke" data-name="path5 stroke" class="cls-4" d="M113.13,21.48v2.93h4.42l-1.71-4.07Zm-40.39,0L70,20.39l-1.61,4h4.34ZM80.16,2.93V0h-2l-.73,1.84Zm25.16,0L108,1.8,107.27,0h-2Zm7.81,15.61H72.74v5.87h40.39Zm-37.67,4L82.88,4,77.44,1.84,70,20.39Zm4.7-16.7h25.16V0H80.16Zm22.46-1.8,7.81,18.55,5.41-2.28L108,1.8Z"/></g><g id="Vector-5" data-name="Vector"><path id="path6_fill" data-name="path6 fill" class="cls-1" d="M42.66,8H8.82V21.48H42.66Z"/><path id="path7_stroke" data-name="path7 stroke" class="cls-4" d="M8.82,8V5.09H5.88V8ZM42.66,8h2.93V5.09H42.66Zm0,13.46v2.93h2.93V21.48Zm-33.84,0H5.88v2.93H8.82ZM8.82,11H42.66V5.09H8.82ZM39.72,8V21.48h5.87V8Zm2.94,10.52H8.82v5.87H42.66ZM11.75,21.48V8H5.88V21.48Z"/></g></g></g></g></g></svg>