<svg xmlns="http://www.w3.org/2000/svg" viewBox="0 0 176.96 194.87"><defs><style>.cls-1{fill:#fff;}.cls-2{fill:#fbc911;}.cls-3{fill:#fff5d7;}</style></defs><title>Asset 2</title><g id="Layer_2" data-name="Layer 2"><g id="Layer_1-2" data-name="Layer 1"><rect class="cls-1" x="2.5" y="2.5" width="125.77" height="166.89"/><path class="cls-2" d="M130.77,171.89H0V0H130.77ZM5,166.89H125.77V5H5Z"/><rect class="cls-3" x="13.68" y="22.45" width="47.52" height="5.13"/><rect class="cls-3" x="13.68" y="33.53" width="47.52" height="5.13"/><rect class="cls-3" x="13.68" y="44.61" width="47.52" height="5.13"/><rect class="cls-3" x="13.68" y="55.69" width="47.52" height="5.13"/><rect class="cls-3" x="13.68" y="66.77" width="47.52" height="5.13"/><rect class="cls-3" x="69.6" y="22.45" width="47.52" height="63.5"/><rect class="cls-3" x="13.68" y="94.57" width="103.44" height="63.5"/><rect class="cls-3" x="89.74" y="78.82" width="84.72" height="99.42"/><path class="cls-2" d="M177,180.74H87.24V76.32H177Zm-84.72-5H172V81.32H92.24Z"/><polygon class="cls-1" points="154.52 191.79 89.74 178.24 89.74 78.82 154.52 92.37 154.52 191.79"/><path class="cls-2" d="M157,194.87l-69.78-14.6V75.74L157,90.34ZM92.24,176.21,152,188.72V94.4L92.24,81.89Z"/><polygon class="cls-3" points="140.21 155.94 102.57 148.62 102.57 105.6 140.21 112.92 140.21 155.94"/></g></g></svg>