<svg xmlns="http://www.w3.org/2000/svg" viewBox="0 0 300 300"><defs><style>.cls-1{fill:#ffffff;}</style></defs><title>Asset 16</title><g id="Layer_2" data-name="Layer 2"><g id="Layer_1-2" data-name="Layer 1"><path class="cls-1" d="M-276.56-240H-543.44A16.55,16.55,0,0,0-560-223.44V43.44A16.55,16.55,0,0,0-543.44,60h143.68V-55h-39.1v-45.28h39.1v-33.39c0-38.75,23.67-59.85,58.23-59.85a320.58,320.58,0,0,1,34.94,1.79v40.49h-24c-18.79,0-22.43,8.94-22.43,22.05v28.9h44.83L-314-55h-39V60h76.44A16.55,16.55,0,0,0-260,43.44V-223.44A16.55,16.55,0,0,0-276.56-240Z" transform="translate(560 240)"/></g></g></svg>