<svg xmlns="http://www.w3.org/2000/svg" viewBox="0 0 300 300"><defs><style>.cls-1{fill:#ffffff;}</style></defs><title>Asset 17</title><g id="Layer_2" data-name="Layer 2"><g id="Layer_1-2" data-name="Layer 1"><path class="cls-1" d="M-260.91-151.85c-.75-16-3.28-26.87-7-36.41a73.54,73.54,0,0,0-17.31-26.57,73.23,73.23,0,0,0-26.56-17.29c-9.56-3.71-20.47-6.24-36.44-7S-369.28-240-410-240s-45.83.18-61.83.91-26.87,3.26-36.4,7a73.43,73.43,0,0,0-26.58,17.29,73.81,73.81,0,0,0-17.31,26.57c-3.72,9.54-6.25,20.45-7,36.41S-560-130.74-560-90s.18,45.84.91,61.84,3.26,26.87,7,36.4a73.33,73.33,0,0,0,17.3,26.58,73.42,73.42,0,0,0,26.56,17.31c9.54,3.71,20.45,6.24,36.41,7s21.11.9,61.85.9,45.83-.18,61.83-.9,26.88-3.26,36.43-7a73.39,73.39,0,0,0,26.55-17.31A73.54,73.54,0,0,0-267.88,8.25c3.69-9.54,6.22-20.45,7-36.41S-260-49.26-260-90-260.19-135.85-260.91-151.85Zm-27,122.41c-.67,14.63-3.12,22.56-5.17,27.85a46.4,46.4,0,0,1-11.22,17.23,46.52,46.52,0,0,1-17.24,11.22c-5.28,2.06-13.23,4.5-27.85,5.16-15.82.72-20.57.88-60.62.88s-44.8-.16-60.61-.88c-14.62-.67-22.56-3.11-27.85-5.17A46.48,46.48,0,0,1-515.7,15.63,46.51,46.51,0,0,1-526.93-1.61c-2.05-5.28-4.5-13.22-5.16-27.84C-532.81-45.26-533-50-533-90.07s.15-44.78.87-60.59c.67-14.63,3.11-22.57,5.16-27.86a46.5,46.5,0,0,1,11.23-17.25A46.48,46.48,0,0,1-498.45-207c5.28-2.06,13.23-4.5,27.85-5.17,13.84-.63,19.2-.81,47.16-.85v0H-410c40.05,0,44.8.15,60.62.86,14.62.67,22.56,3.12,27.85,5.17a46.44,46.44,0,0,1,17.24,11.22,46.48,46.48,0,0,1,11.22,17.25c2.05,5.28,4.5,13.22,5.17,27.84.71,15.82.87,20.57.87,60.6S-287.18-45.25-287.89-29.44Z" transform="translate(560 240)"/><path class="cls-1" d="M-329.92-152.07a18,18,0,0,1-18-18,18,18,0,0,1,18-18h0a18,18,0,0,1,18,18A18,18,0,0,1-329.92-152.07Z" transform="translate(560 240)"/><path class="cls-1" d="M-410-167a77,77,0,0,0-77,77,77,77,0,0,0,77,77,77,77,0,0,0,77-77A77,77,0,0,0-410-167Zm0,127a50,50,0,0,1-50-50,50,50,0,0,1,50-50,50,50,0,0,1,50,50A50,50,0,0,1-410-40Z" transform="translate(560 240)"/></g></g></svg>