<svg xmlns="http://www.w3.org/2000/svg" viewBox="0 0 300 243.8"><defs><style>.cls-1{fill:#ffffff;}</style></defs><title>Asset 18</title><g id="Layer_2" data-name="Layer 2"><g id="Layer_1-2" data-name="Layer 1"><path class="cls-1" d="M300,28.86a122.67,122.67,0,0,1-35.35,9.69,61.67,61.67,0,0,0,27.06-34,123.27,123.27,0,0,1-39.08,14.94A61.6,61.6,0,0,0,147.75,75.57,174.74,174.74,0,0,1,20.88,11.27,61.62,61.62,0,0,0,39.93,93.44a61.32,61.32,0,0,1-27.88-7.7v.77a61.6,61.6,0,0,0,49.37,60.36,61.9,61.9,0,0,1-27.79,1,61.6,61.6,0,0,0,57.49,42.74A123.47,123.47,0,0,1,14.68,217,124.73,124.73,0,0,1,0,216.15,174.24,174.24,0,0,0,94.35,243.8c113.21,0,175.12-93.78,175.12-175.12,0-2.66-.06-5.32-.18-8A125.21,125.21,0,0,0,300,28.86Z"/></g></g></svg>