<svg xmlns="http://www.w3.org/2000/svg" viewBox="0 0 1095.13 682"><defs><style>.cls-1{fill:#625971;}.cls-2{fill:#fbc911;}</style></defs><title>Asset 2</title><g id="Layer_2" data-name="Layer 2"><g id="Layer_1-2" data-name="Layer 1"><polygon class="cls-1" points="1095.13 682 1053.26 682 1053.26 47.43 41.87 173.85 41.87 682 0 682 0 136.89 1095.13 0 1095.13 682"/><path class="cls-2" d="M311.55,547.43,280.4,484.12H243.56v63.31H173.89V312.62H283.42q47.22,0,73.19,21.78t26,61.63q0,25.8-10.22,44.72a75.69,75.69,0,0,1-29.31,30l47.56,76.7Zm-68-116.9h39.86q15.74,0,24.28-8.37T316.24,398q0-15.41-8.54-23.61t-24.28-8.21H243.56Z"/><path class="cls-2" d="M615.86,327.2q28.64,14.57,44.38,41.2T676,429.86q0,34.84-16.08,61.63t-45.22,41.37q-29.15,14.57-67.33,14.57H446.87V312.62H549.71Q587.21,312.62,615.86,327.2ZM590.24,475.75Q605,458.67,605,430.53T589.23,385q-15.74-17.42-40.86-17.42H516.55V492.83h35.17Q575.5,492.83,590.24,475.75Z"/><path class="cls-2" d="M873.78,374.76q-15.24-8.53-29.64-8.54a52.24,52.24,0,0,0-28.48,8,56.35,56.35,0,0,0-20.09,22.27,73.11,73.11,0,0,0,0,64A57.6,57.6,0,0,0,815.66,483a51.38,51.38,0,0,0,28.48,8.21q13.4,0,28.64-7.37a93.44,93.44,0,0,0,27.3-20.1l40.19,42.88a142.6,142.6,0,0,1-46.06,33.16q-27,12.39-53.42,12.39-35.17,0-63.48-15.91a115.17,115.17,0,0,1-44.38-44.05q-16.08-28.12-16.08-63,0-34.17,16.42-61.8A116.52,116.52,0,0,1,778.48,324q28.82-15.74,64.65-15.74,26.46,0,52.93,11.39t44.21,30.48L900.08,398A84.12,84.12,0,0,0,873.78,374.76Z"/></g></g></svg>