<svg xmlns="http://www.w3.org/2000/svg" viewBox="0 0 1544.12 195.68"><defs><style>.cls-1{fill:#625971;}</style></defs><title>Asset 9</title><g id="Layer_2" data-name="Layer 2"><g id="Layer_1-2" data-name="Layer 1"><path class="cls-1" d="M25.68,191.33A14.88,14.88,0,0,1,15,195.68a14.4,14.4,0,0,1-10.6-4.35A14.39,14.39,0,0,1,0,180.73V20.38A14.44,14.44,0,0,1,4.35,9.78,14.43,14.43,0,0,1,15,5.44,14.91,14.91,0,0,1,25.68,9.78a14.22,14.22,0,0,1,4.49,10.6V85.61h70.39V20.38a14.44,14.44,0,0,1,4.35-10.6,14.43,14.43,0,0,1,10.6-4.34,14.91,14.91,0,0,1,10.73,4.34,14.22,14.22,0,0,1,4.49,10.6V180.73a14.18,14.18,0,0,1-4.49,10.6,14.88,14.88,0,0,1-10.73,4.35,14.85,14.85,0,0,1-15-15V115.51H30.17v65.22A14.18,14.18,0,0,1,25.68,191.33Z"/><path class="cls-1" d="M305.48,186.17l-13.32-35.33h-66L212.8,186.17q-3.81,9.51-13.18,9.51T186.17,189a15.43,15.43,0,0,1-1.63-13.72L244.6,15.22a16.49,16.49,0,0,1,5.85-7.07A13.31,13.31,0,0,1,259,5.71q10.32-.54,14.4,9.51L333.47,175.3A15.4,15.4,0,0,1,331.84,189q-4.06,6.67-13.45,6.66T305.48,186.17ZM237,120.94h44L259,62.51Z"/><path class="cls-1" d="M410.66,50.55q-19.85,20.39-19.84,47.83t20.25,46.89Q431.31,164.7,458,164.7t45.39-14.95A14.67,14.67,0,0,1,514.48,147a15.89,15.89,0,0,1,10.6,5.71,15.51,15.51,0,0,1,3,11.55,14.73,14.73,0,0,1-5.71,10.19q-27.18,21.21-62.78,21.2-40.77,0-70.12-28.67T359.84,97.84q.27-40.22,29.62-68.9T459.58,0q35.61,0,62.78,21.2a15.65,15.65,0,0,1,5.71,10.33,15,15,0,0,1-3.13,11.41,14.93,14.93,0,0,1-10.46,6,14,14,0,0,1-11.14-3Q485.13,31,458.36,31T410.66,50.55Z"/><path class="cls-1" d="M603.35,191.33a15,15,0,0,1-25.55-10.6v-159a14.56,14.56,0,0,1,4.35-10.46,14.76,14.76,0,0,1,21.2,0,14.56,14.56,0,0,1,4.35,10.46v78l88.06-88.32a15.09,15.09,0,0,1,21.2,0A14.44,14.44,0,0,1,721.3,22,14.43,14.43,0,0,1,717,32.61l-59.8,59.52,60.34,79.09q6.25,7.34,1.77,15.9T707,195.68a15.41,15.41,0,0,1-12.37-5.43L636,113.33,607.7,142.14v38.59A14.39,14.39,0,0,1,603.35,191.33Z"/><path class="cls-1" d="M929.49,117.14q0,32.34-23,55.44t-55.58,23.1q-32.61,0-55.58-23t-23-55.58V20.38a14.44,14.44,0,0,1,4.35-10.6,14.43,14.43,0,0,1,10.6-4.34,14.91,14.91,0,0,1,10.73,4.34,14.22,14.22,0,0,1,4.49,10.6v96.76a46.79,46.79,0,0,0,14.13,34.11,48.31,48.31,0,0,0,82.62-34.11V20.38a14.25,14.25,0,0,1,4.48-10.6,14.91,14.91,0,0,1,10.74-4.34,14.45,14.45,0,0,1,10.6,4.34,14.44,14.44,0,0,1,4.35,10.6Z"/><path class="cls-1" d="M1075.43,126.92h-.54a14.72,14.72,0,0,1-12.5-6.25l-38.87-54.35V180.73a14.17,14.17,0,0,1-4.48,10.6,14.88,14.88,0,0,1-10.74,4.35,14.84,14.84,0,0,1-14.94-15V20.38a14.43,14.43,0,0,1,4.34-10.6,14.45,14.45,0,0,1,10.6-4.34h.82q7.88,0,12,6.25l54.08,75,54.09-75a14.45,14.45,0,0,1,12.23-6.25h.27a15.92,15.92,0,0,1,10.73,4.62A13.9,13.9,0,0,1,1157,20.38V180.73a14.35,14.35,0,0,1-4.49,10.47,14.64,14.64,0,0,1-10.73,4.48,14.85,14.85,0,0,1-15-15V66.32l-39.14,54.35A14.48,14.48,0,0,1,1075.43,126.92Z"/><path class="cls-1" d="M1238.77,195.68l-.27-.27a2.16,2.16,0,0,0-.82.27,14.84,14.84,0,0,1-14.94-15V20.38a14.43,14.43,0,0,1,4.34-10.6,14.45,14.45,0,0,1,10.6-4.34h38.6a49.75,49.75,0,0,1,36.55,15.08q15.09,15.09,15.09,34.38t-10.33,33.16a59,59,0,0,1,20,20.92,55.84,55.84,0,0,1,7.48,28.27,56.53,56.53,0,0,1-17,41.31,55.82,55.82,0,0,1-41.17,17.12ZM1252.9,35.6V79.09h23.38a20.32,20.32,0,0,0,15.22-6.52,21.68,21.68,0,0,0,6.25-15.5,21.34,21.34,0,0,0-21.47-21.47Zm0,73.66v56.25h34a27.92,27.92,0,0,0,19.84-8.42,27,27,0,0,0,8.15-19.84,26.56,26.56,0,0,0-8.15-19.7,28.21,28.21,0,0,0-19.84-8.29Z"/><path class="cls-1" d="M1426.57,50.55q-19.85,20.39-19.84,47.83T1427,145.27q20.24,19.42,46.88,19.43t45.39-14.95a14.67,14.67,0,0,1,11.14-2.72,15.89,15.89,0,0,1,10.6,5.71,15.51,15.51,0,0,1,3,11.55,14.7,14.7,0,0,1-5.71,10.19q-27.18,21.21-62.78,21.2-40.77,0-70.12-28.67t-29.62-69.17q.27-40.22,29.62-68.9T1475.49,0q35.61,0,62.78,21.2A15.6,15.6,0,0,1,1544,31.53a15,15,0,0,1-3.12,11.41,15,15,0,0,1-10.47,6,14,14,0,0,1-11.14-3Q1501,31,1474.27,31T1426.57,50.55Z"/></g></g></svg>