<svg xmlns="http://www.w3.org/2000/svg" viewBox="0 0 1714.64 241.61"><defs><style>.cls-1{fill:#625971;}</style></defs><title>Asset 10</title><g id="Layer_2" data-name="Layer 2"><g id="Layer_1-2" data-name="Layer 1"><path class="cls-1" d="M97,183.45H0V162.79H10.6c15.76.27,17.66-1.9,17.66-16.58V39.41c0-14.68-1.9-16.85-17.66-16.58H0V2.17H95.12c25.55,0,42.4,3.81,54.9,12.23,12.23,8.43,19,22,19,38.32,0,17.4-7.61,32.07-20.38,39.68-12,6.8-26.36,9.24-57.07,9.24H66.31v44.57c0,14.68,1.91,16.85,17.94,16.58H97ZM84.25,81c19.84,0,29.35-1.9,36.15-7.34,5.7-4.35,9-12.5,9-22,0-13-6-22.56-17.13-26.09-6.25-2.18-12.5-2.72-30.16-2.72H66.31V81Z"/><path class="cls-1" d="M185.35,165.24h9.79c13.59-.54,15.49-2.72,15.49-16v-59c0-13.32-1.9-15.49-15.49-16h-9.79V56h58.16V149.2c0,13.32,1.91,15.5,15.49,16h8.16v18.21H185.35ZM244.87,20.11A20,20,0,0,1,225,40.22a20.25,20.25,0,0,1-20.38-20.65C204.65,9,213.89,0,224.76,0A20.07,20.07,0,0,1,244.87,20.11Z"/><path class="cls-1" d="M413.37,146.21c-.27,14.68,1.91,16.85,17.94,16.58h7.34v20.66H347.88V162.79h10.6c15.76.27,17.66-1.9,17.66-16.58V39.41c0-14.68-1.9-16.85-17.66-16.58h-10.6V2.17H440V22.83h-8.7c-16-.27-18.21,1.9-17.94,16.58V90.5l61.15-57.34c2.72-2.45,4.35-5.17,4.35-6.8,0-2.44-3.53-3.53-10.6-3.53h-12V2.17h91.32V22.83h-6.25c-15.22.27-25.55,5.71-45.93,23.91L468.82,70.93,524,149.2c9.24,12,12,13.59,26.09,13.59h9v20.66H458.49V162.79h14.67c9,0,11.42-1.08,11.42-4.62,0-2.17-1.63-5.71-4.35-9.51L443,95.39l-29.63,25.82Z"/><path class="cls-1" d="M711.78,135.89c-.27,20.92-1.09,27.72-3.8,34.78-5.17,11.69-14.68,17.4-29.9,17.4-16,0-23.64-5.44-29.08-20.11-13.32,15.22-24.19,20.38-43.48,20.38-23.1,0-38.87-14.13-38.87-34.79,0-13.86,7.34-25.55,20.39-31.8,9-4.62,18.75-7.88,38.59-12.5,17.66-4.35,23.64-9.78,23.64-21.74,0-14.13-9.78-21.47-28.53-21.47-10.87,0-17.4,2.17-25.28,7.88,12.78.82,17.94,5.17,17.94,15,0,10.06-7.61,17.12-18.75,17.12-12.78,0-21.47-8.7-21.47-21.2,0-20.11,20.92-33.42,52.45-33.42,17.66,0,33.7,3.8,41.85,9.78C678.35,69,680.8,76.1,680.8,99.74v56.53c0,6.52,2.17,9.51,6.52,9.51,6.25,0,8.15-6.52,8.15-26.9v-3Zm-63.59-19c-6.25,3.26-10.87,5.44-13.05,6.25l-13.86,5.44c-11.69,4.62-18.21,12.5-18.21,21.74,0,9.78,6,15.49,16.58,15.49a28.12,28.12,0,0,0,20.11-8.15c6.25-6.25,8.43-13.32,8.43-25.28Z"/><path class="cls-1" d="M716.68,56h54.89V78.27c11.15-19.57,22-26.09,42.67-26.09,35.33,0,55.72,24.73,55.72,67.94s-20.39,67.95-55.72,67.95c-20.65,0-31.52-6.53-42.67-25.82v45.11c0,13.32,1.91,15.49,15.5,16H799v18.21h-83.7V223.4h8.15c13.59-.55,15.49-2.72,15.49-16V90.23c0-13.59-1.9-15.49-15.49-16h-6.79Zm54.89,63.32c0,29.08,11.42,45.39,31.8,45.39,19.3,0,29.63-15.5,29.63-44.58,0-30.71-10.06-46.2-29.63-46.2C783,73.92,771.57,90.23,771.57,119.31Z"/><path class="cls-1" d="M885.45,56h54.9V78.27c11.14-19.57,22-26.09,42.67-26.09,35.33,0,55.71,24.73,55.71,67.94s-20.38,67.95-55.71,67.95c-20.66,0-31.53-6.53-42.67-25.82v45.11c0,13.32,1.9,15.49,15.49,16h12v18.21H884.09V223.4h8.15c13.59-.55,15.49-2.72,15.49-16V90.23c0-13.59-1.9-15.49-15.49-16h-6.79Zm54.9,63.32c0,29.08,11.41,45.39,31.79,45.39,19.3,0,29.63-15.5,29.63-44.58,0-30.71-10.06-46.2-29.63-46.2C951.76,73.92,940.35,90.23,940.35,119.31Z"/><path class="cls-1" d="M1203.15,135.89c-.27,20.92-1.08,27.72-3.8,34.78-5.17,11.69-14.68,17.4-29.9,17.4-16,0-23.64-5.44-29.08-20.11-13.31,15.22-24.18,20.38-43.48,20.38-23.1,0-38.86-14.13-38.86-34.79,0-13.86,7.33-25.55,20.38-31.8,9-4.62,18.75-7.88,38.59-12.5,17.67-4.35,23.65-9.78,23.65-21.74,0-14.13-9.79-21.47-28.54-21.47-10.87,0-17.39,2.17-25.28,7.88,12.78.82,17.94,5.17,17.94,15,0,10.06-7.61,17.12-18.75,17.12-12.77,0-21.47-8.7-21.47-21.2,0-20.11,20.93-33.42,52.45-33.42,17.67,0,33.7,3.8,41.85,9.78,10.88,7.88,13.32,14.95,13.32,38.59v56.53c0,6.52,2.18,9.51,6.52,9.51,6.25,0,8.16-6.52,8.16-26.9v-3Zm-63.59-19c-6.25,3.26-10.87,5.44-13,6.25l-13.86,5.44c-11.68,4.62-18.21,12.5-18.21,21.74,0,9.78,6,15.49,16.58,15.49a28.12,28.12,0,0,0,20.11-8.15c6.25-6.25,8.43-13.32,8.43-25.28Z"/><path class="cls-1" d="M1375.73,183.45h-97V162.79h10.6c15.76.27,17.66-1.9,17.66-16.58V39.41c0-14.68-1.9-16.85-17.66-16.58h-10.6V2.17h95.12c25.55,0,42.4,3.81,54.9,12.23,12.23,8.43,19,22,19,38.32,0,17.4-7.61,32.07-20.38,39.68-12,6.8-26.36,9.24-57.07,9.24H1345v44.57c0,14.68,1.91,16.85,17.94,16.58h12.77ZM1363,81c19.84,0,29.35-1.9,36.15-7.34,5.7-4.35,9-12.5,9-22,0-13-6-22.56-17.13-26.09-6.25-2.18-12.5-2.72-30.16-2.72H1345V81Z"/><path class="cls-1" d="M1457.54,2.17h55.17v76.1c16.85-19.57,28.54-26.36,45.66-26.36,11.69,0,23.65,4.35,30.44,11.14s9.24,16.58,9.24,35.88V149.2c0,13.59,1.9,15.5,15.49,16h7.61v18.21h-76.37V165.24h5.44c13.32-.54,15.22-2.45,15.22-16V98.93c0-11.15-.82-15-3.81-19-3.26-4.35-9.24-7.07-16-7.07-9.51,0-18.75,4.9-25,13.32-6,7.61-7.89,15.49-7.89,31.26V149.2c0,13.59,1.91,15.5,15.5,16h5.43v18.21h-76.1V165.24h7.07c13.59-.54,15.49-2.45,15.49-16V36.42c0-13.59-1.9-15.49-15.49-16h-7.07Z"/><path class="cls-1" d="M1632.84,165.24h9.78c13.59-.54,15.5-2.72,15.5-16v-59c0-13.32-1.91-15.49-15.5-16h-9.78V56H1691V149.2c0,13.32,1.9,15.5,15.49,16h8.15v18.21h-81.8Zm59.52-145.13a20,20,0,0,1-19.84,20.11,20.24,20.24,0,0,1-20.38-20.65C1652.14,9,1661.38,0,1672.25,0A20.07,20.07,0,0,1,1692.36,20.11Z"/></g></g></svg>