<svg xmlns="http://www.w3.org/2000/svg" viewBox="0 0 1951.04 346.23"><defs><style>.cls-1{fill:#625971;}</style></defs><title>Asset 11</title><g id="Layer_2" data-name="Layer 2"><g id="Layer_1-2" data-name="Layer 1"><path class="cls-1" d="M56.8,220.69l34.92,2L75.87,238.07l-61.13-2.92L31.86,218.7l14.33,1.59q16.19-10.22,19.9-41.8l1.46-12.87L78.7,65q-60.25,11.4-60.25,45.51a50.54,50.54,0,0,0,5.7,24.29L2.79,153.67A78.23,78.23,0,0,1,0,133Q0,96.88,30.65,74.12T110,51.36q65.3,0,65.29,42.73,0,27.07-24.31,46.31T89.33,161.9Q86.17,192.83,81,202.24T56.8,220.69ZM100.24,63.43,90.72,148.1a76.21,76.21,0,0,0,13,1.33q51,0,51-44.46Q154.73,63.44,100.24,63.43Z"/><path class="cls-1" d="M214.45,161.9q15.53-23.35,34.17-38.55t31.92-15.2q12.87,0,12.87,17.9a129.67,129.67,0,0,1-1.54,16.3l-7.08,49.44a170.71,170.71,0,0,0-2.2,23.47q0,6.88,3.73,6.89,9.18,0,22.48-24.29,3.31,2,3.32,4.12,0,8.63-14.81,22.62t-24.11,14q-10.35,0-10.36-14.86,0-10.87,2.79-30.12l4.6-32.12a187.64,187.64,0,0,0,2.25-25.08q0-10.21-7.28-10.22-16.95,0-34.29,23t-20.39,49.43L207,230.51l-19.85,8.09.4-3.71,1.06-9.83,1.06-9.28L202.55,99.45q4.63-41.16,30.51-70.3T290.89,0a56.36,56.36,0,0,1,12.87,1.46L284.27,20.57A50.26,50.26,0,0,0,270,18.31q-39.39,0-46.28,61.64Z"/><path class="cls-1" d="M388.84,196.54q3.57,2.11,3.57,4.11,0,4.78-11.54,18.85-15.54,19.09-28.8,19.1-9.69,0-9.69-12.85,0-5.44,4-33.41l5.18-36.05,1.32-9.14,1.07-7.29a57.32,57.32,0,0,0,.66-7.83q0-6.61-3.7-6.62-10.31,0-22.19,22.69c-1.67-1.5-2.51-3-2.51-4.51q0-8.1,14.93-21.77t23.82-13.67q10,0,9.95,13.79a107.14,107.14,0,0,1-1.06,10.87l-1.19,8.88q-.13,1.06-1.46,10.74l-5.44,37.91-1.33,8.48a156,156,0,0,0-1.73,16.83c0,3.8,1.11,5.7,3.31,5.7Q377.09,221.35,388.84,196.54ZM362.29,91l11.14-27.47a65.14,65.14,0,0,0,24.42-16.86,6.58,6.58,0,0,1,1.33,3.85Q399.18,68.35,362.29,91Z"/><path class="cls-1" d="M477.74,211.67,500.33,198q5.31,32.64,39.2,32.64,16.47,0,27-9a28.89,28.89,0,0,0,10.49-23q0-19.24-23.26-38.22l-16.09-13q-19.41-15.93-25.93-25.15a35.16,35.16,0,0,1-6.51-20.77q0-21.76,17.38-36t43.93-14.2a83.44,83.44,0,0,1,39.94,10.08l-7.69,17.65-3.45,7.83q-2.93,6.9-6.9,6.9a6.2,6.2,0,0,1-3.59-1.33,37.82,37.82,0,0,0,2.26-11.06q0-8.52-9.36-14.26t-23.15-5.73q-31.32,0-31.32,25.9,0,9.3,7,17.86t29,26.5l12.87,10.62q24.55,19.92,24.55,41.83,0,24.18-20.37,40.24t-50.89,16.07Q488.23,240.46,477.74,211.67Z"/><path class="cls-1" d="M687.56,196.54q3.57,2.11,3.57,4.11,0,4.78-11.54,18.85-15.54,19.09-28.8,19.1-9.69,0-9.69-12.85,0-5.44,4-33.41l5.18-36.05,1.32-9.14,1.07-7.29a57.32,57.32,0,0,0,.66-7.83q0-6.61-3.7-6.62-10.3,0-22.19,22.69c-1.67-1.5-2.51-3-2.51-4.51q0-8.1,14.93-21.77t23.82-13.67q10,0,10,13.79a107.14,107.14,0,0,1-1.06,10.87l-1.19,8.88q-.14,1.06-1.46,10.74l-5.44,37.91-1.33,8.48a155.1,155.1,0,0,0-1.72,16.83q0,5.7,3.3,5.7Q675.81,221.35,687.56,196.54ZM661,91l11.14-27.47a65.14,65.14,0,0,0,24.42-16.86,6.51,6.51,0,0,1,1.33,3.85Q697.9,68.35,661,91Z"/><path class="cls-1" d="M813.88,113.33c-.44,1.59-.71,2.57-.79,2.92l-1.46,7q-1.73,7.71-1.86,8.5l-5.31,48.57q-1.32,12.21-2.79,42.86-1.86,38.35-7.29,56.8a80,80,0,0,1-19.25,32.91q-31.57,33.3-67.28,33.31-17.25,0-28.66-11.66T667.77,305.4q0-35.65,43.66-70.38-9.28-7.31-9.28-25.77,0-40.12,26.4-69.75t62.37-29.62Q806.19,109.88,813.88,113.33Zm-28.7,69.75q-35.8,54.73-64.86,54.73c-.79,0-2.21-.09-4.24-.27q-30.93,31-30.92,55.26a36.8,36.8,0,0,0,11.76,27.77q11.76,11.19,29.17,11.19,26.83,0,41.19-23.6,10.9-18.18,15.15-86.62Q784,195.68,785.18,183.08Zm5.92-53.16q-9.57-6.76-24-6.77-18.19,0-30.74,22.83t-12.54,56.13q0,17.25,10.22,17.25,11.68,0,28.55-18.05,23.37-25.08,26.82-56.79Z"/><path class="cls-1" d="M934.08,230.51l-19.71,8.09.39-3.71,1.06-9.82.93-9.29,6.68-59.59.94-6.76q.52-5.31.53-10.35,0-12.87-7.83-12.88-12.23,0-28.49,25t-18.79,47.51l-3.39,31.85-19.85,8.09.4-3.71,1.06-9.82,1.06-9.29,6.8-61.58.8-7a123.66,123.66,0,0,0,.93-13.27q0-8.49-4.25-8.49-10,0-21.55,22.56c-2-1.68-3-3.14-3-4.38q0-8,14.54-21.7t23.06-13.74q11.42,0,11.42,14.6a99.67,99.67,0,0,1-.66,10L876,143.46l-1.08,9-1.09,9.42,3.71-5.84q29.73-47.91,55.35-47.91,12.35,0,12.34,17.79,0,3-1.06,12.87L942.88,151l-1.83,16.59Q953.38,142,970.3,125.07t30.17-16.92q13.14,0,13.14,17a118.42,118.42,0,0,1-1.53,17.39L1005,191.76q-2.35,15.26-2.35,23.62,0,7,3.88,7,4.53,0,11.41-7.57a61.83,61.83,0,0,0,11-17.12q3.6,2.39,3.6,4.38,0,8.35-14.85,22.43T994.07,238.6q-11.31,0-11.31-15.12,0-9.55,2.92-29.6l4.72-32q.27-1.72.93-7.56c.18-1.6.49-4.29.93-8.1a82,82,0,0,0,.66-8.76q0-11.28-7.42-11.28-12.43,0-28.91,25t-19,47.51Z"/><path class="cls-1" d="M1127.23,182.47q-15,24.69-32.94,40.41t-31.21,15.72q-18.15,0-18.16-29.32,0-40.35,26.48-69.87t62.7-29.53q13.8,0,23.49,3.45c-.44,1.59-.71,2.56-.8,2.91l-1.59,7c-1.06,4.86-1.64,7.69-1.72,8.48l-8.5,58.59-1.19,8.48a156,156,0,0,0-1.73,16.83c0,3.8,1.11,5.7,3.31,5.7q11.1,0,22.72-24.81c2.38,1.41,3.57,2.83,3.57,4.24q0,4.65-11.41,18.72-15.54,19.09-28.8,19.1-9.69,0-9.69-13a89.77,89.77,0,0,1,.93-11L1124,204l1.73-11.68Zm7.57-52.56a49.52,49.52,0,0,0-24.43-6.76q-18.58,0-31.2,22.66T1066.55,202q0,17.24,10.23,17.23,11.82,0,28.55-18a103.92,103.92,0,0,0,27.35-57Z"/><path class="cls-1" d="M1257.12,211.67,1279.71,198q5.31,32.64,39.2,32.64,16.48,0,27-9a28.89,28.89,0,0,0,10.49-23q0-19.24-23.26-38.22l-16.09-13q-19.41-15.93-25.92-25.15a35.1,35.1,0,0,1-6.52-20.77q0-21.76,17.39-36t43.92-14.2a83.44,83.44,0,0,1,39.94,10.08l-7.69,17.65-3.45,7.83q-2.92,6.9-6.9,6.9a6.2,6.2,0,0,1-3.59-1.33,37.82,37.82,0,0,0,2.26-11.06q0-8.52-9.36-14.26T1334,61.44q-31.32,0-31.32,25.9,0,9.3,7,17.86t29,26.5l12.87,10.62Q1376,162.24,1376,184.15q0,24.18-20.38,40.24t-50.89,16.07Q1267.61,240.46,1257.12,211.67Z"/><path class="cls-1" d="M1466.94,196.54q3.57,2.11,3.57,4.11,0,4.78-11.54,18.85-15.54,19.09-28.8,19.1-9.69,0-9.69-12.85,0-5.44,4-33.41l5.18-36.05,1.32-9.14,1.07-7.29a57.32,57.32,0,0,0,.66-7.83q0-6.61-3.7-6.62-10.31,0-22.19,22.69c-1.67-1.5-2.51-3-2.51-4.51q0-8.1,14.93-21.77T1443,108.15q10,0,10,13.79a107.14,107.14,0,0,1-1.06,10.87l-1.19,8.88q-.13,1.06-1.46,10.74l-5.44,37.91-1.33,8.48a155.1,155.1,0,0,0-1.72,16.83q0,5.7,3.3,5.7Q1455.19,221.35,1466.94,196.54ZM1440.39,91l11.14-27.47A65.14,65.14,0,0,0,1476,46.71a6.58,6.58,0,0,1,1.33,3.85Q1477.28,68.35,1440.39,91Z"/><path class="cls-1" d="M1593.26,113.33c-.44,1.59-.71,2.57-.79,2.92l-1.46,7q-1.73,7.71-1.86,8.5l-5.31,48.57q-1.32,12.21-2.78,42.86-1.86,38.35-7.3,56.8a80,80,0,0,1-19.25,32.91q-31.58,33.3-67.28,33.31-17.25,0-28.66-11.66t-11.41-29.17q0-35.65,43.66-70.38-9.3-7.31-9.29-25.77,0-40.12,26.4-69.75t62.38-29.62Q1585.57,109.88,1593.26,113.33Zm-28.7,69.75q-35.8,54.73-64.86,54.73c-.79,0-2.21-.09-4.24-.27q-30.93,31-30.92,55.26a36.8,36.8,0,0,0,11.76,27.77q11.76,11.19,29.17,11.19,26.83,0,41.19-23.6,10.9-18.18,15.15-86.62Q1563.38,195.68,1564.56,183.08Zm5.92-53.16q-9.57-6.76-24-6.77-18.18,0-30.74,22.83t-12.54,56.13q0,17.25,10.22,17.25,11.68,0,28.55-18.05,23.37-25.08,26.82-56.79Z"/><path class="cls-1" d="M1713.46,230.51l-19.71,8.09.39-3.71,1.06-9.82.93-9.29,6.68-59.59.94-6.76q.52-5.31.53-10.35,0-12.87-7.83-12.88-12.23,0-28.49,25t-18.79,47.51l-3.39,31.85-19.85,8.09.4-3.71,1.06-9.82,1.06-9.29,6.8-61.58.8-7a123.66,123.66,0,0,0,.93-13.27q0-8.49-4.25-8.49-10,0-21.55,22.56c-2-1.68-3-3.14-3-4.38q0-8,14.54-21.7t23.06-13.74q11.41,0,11.42,14.6a99.67,99.67,0,0,1-.66,10l-1.07,10.75-1.09,9-1.08,9.42,3.71-5.84q29.73-47.91,55.35-47.91,12.35,0,12.34,17.79,0,3-1.06,12.87L1722.26,151l-1.83,16.59q12.33-25.62,29.25-42.54t30.17-16.92q13.14,0,13.14,17a118.42,118.42,0,0,1-1.53,17.39l-7.06,49.23q-2.36,15.26-2.35,23.62,0,7,3.88,7,4.53,0,11.41-7.57a61.83,61.83,0,0,0,11-17.12q3.6,2.39,3.6,4.38,0,8.35-14.85,22.43t-23.66,14.06q-11.31,0-11.31-15.12,0-9.55,2.92-29.6l4.72-32q.27-1.72.93-7.56c.18-1.6.49-4.29.93-8.1a82,82,0,0,0,.66-8.76q0-11.28-7.42-11.28-12.44,0-28.91,25t-19,47.51Z"/><path class="cls-1" d="M1906.61,182.47q-15,24.69-32.93,40.41t-31.22,15.72q-18.15,0-18.16-29.32,0-40.35,26.48-69.87t62.7-29.53q13.8,0,23.49,3.45c-.44,1.59-.71,2.56-.79,2.91l-1.6,7q-1.59,7.29-1.72,8.48l-8.49,58.59-1.2,8.48a155.1,155.1,0,0,0-1.72,16.83q0,5.7,3.3,5.7,11.1,0,22.72-24.81c2.38,1.41,3.57,2.83,3.57,4.24q0,4.65-11.41,18.72-15.53,19.09-28.8,19.1-9.69,0-9.69-13a89.77,89.77,0,0,1,.93-11l1.34-10.61,1.73-11.68Zm7.57-52.56a49.49,49.49,0,0,0-24.43-6.76q-18.59,0-31.2,22.66T1845.94,202q0,17.24,10.22,17.23,11.82,0,28.55-18a103.92,103.92,0,0,0,27.35-57Z"/></g></g></svg>