<svg xmlns="http://www.w3.org/2000/svg" viewBox="0 0 2156.07 427.38"><defs><style>.cls-1{fill:#625971;}</style></defs><title>Asset 10</title><g id="Layer_2" data-name="Layer 2"><g id="Layer_1-2" data-name="Layer 1"><path class="cls-1" d="M545.62,136.69a49.72,49.72,0,0,1-4.45,21.5,46.17,46.17,0,0,1-12.34,16,53.42,53.42,0,0,1-18.58,9.88,77.26,77.26,0,0,1-23,3.32,82.54,82.54,0,0,1-16-1.46,87.84,87.84,0,0,1-13.14-3.58,64.31,64.31,0,0,1-9.69-4.38,25.77,25.77,0,0,1-5.44-3.85,9.62,9.62,0,0,1-2.25-4.05,23.63,23.63,0,0,1-.73-6.57,36.07,36.07,0,0,1,.26-4.84,11.72,11.72,0,0,1,.8-3.12,3.46,3.46,0,0,1,1.32-1.66,3.64,3.64,0,0,1,1.86-.46q1.86,0,5.24,2.25a80.24,80.24,0,0,0,8.7,4.91,84.92,84.92,0,0,0,12.8,5,58.57,58.57,0,0,0,17.32,2.32,44,44,0,0,0,13.6-2,31.79,31.79,0,0,0,10.62-5.64,24.38,24.38,0,0,0,6.83-9,29,29,0,0,0,2.39-12.08,22.73,22.73,0,0,0-3.31-12.48,33.67,33.67,0,0,0-8.76-9.09,78.08,78.08,0,0,0-12.41-7.16L483,103.84a152.65,152.65,0,0,1-14.2-7.5,60.46,60.46,0,0,1-12.34-9.68,45,45,0,0,1-8.82-13.07q-3.39-7.5-3.39-18a45,45,0,0,1,3.92-19.17A39.51,39.51,0,0,1,459,22.29a48.54,48.54,0,0,1,16.59-8.69,69.7,69.7,0,0,1,20.77-3,67.66,67.66,0,0,1,11.47,1,78.83,78.83,0,0,1,10.89,2.66A60.65,60.65,0,0,1,527.84,18a23.54,23.54,0,0,1,5.24,3.32,10.17,10.17,0,0,1,1.66,2,8,8,0,0,1,.66,1.86,18.69,18.69,0,0,1,.4,2.72c.09,1.06.13,2.43.13,4.11a38.5,38.5,0,0,1-.2,4.25,16.55,16.55,0,0,1-.59,3.12A3.92,3.92,0,0,1,534,41.21a2.59,2.59,0,0,1-1.66.59c-1,0-2.5-.62-4.58-1.85s-4.62-2.64-7.63-4.19a67.84,67.84,0,0,0-10.68-4.24,46.63,46.63,0,0,0-13.87-1.93,36.59,36.59,0,0,0-12.47,1.93,25.43,25.43,0,0,0-8.76,5.11,20.13,20.13,0,0,0-5.18,7.56,25.13,25.13,0,0,0-1.72,9.29,22.38,22.38,0,0,0,3.31,12.34A33.87,33.87,0,0,0,479.6,75a78.63,78.63,0,0,0,12.54,7.3q7,3.31,14.33,6.7t14.33,7.43A59.89,59.89,0,0,1,533.34,106a43.56,43.56,0,0,1,8.9,13A42.9,42.9,0,0,1,545.62,136.69Z"/><path class="cls-1" d="M686.82,120.5A89.61,89.61,0,0,1,683,147.37a59.38,59.38,0,0,1-11.48,21.17,52,52,0,0,1-19.11,13.86q-11.48,5-26.61,5-14.73,0-25.68-4.38a47,47,0,0,1-18.24-12.74A53.78,53.78,0,0,1,571,150a94.14,94.14,0,0,1-3.59-27.07A90.67,90.67,0,0,1,571.17,96a58.36,58.36,0,0,1,11.41-21.16,51.46,51.46,0,0,1,19-13.81q11.42-4.9,26.67-4.91,14.75,0,25.68,4.38a47,47,0,0,1,18.25,12.74,55,55,0,0,1,10.95,20.31A92.17,92.17,0,0,1,686.82,120.5ZM664.12,122a89.64,89.64,0,0,0-1.8-18.32,45.17,45.17,0,0,0-6-15.12,29.56,29.56,0,0,0-11.25-10.29q-7.1-3.78-17.68-3.78a37.78,37.78,0,0,0-16.8,3.45,30.75,30.75,0,0,0-11.58,9.75,43.89,43.89,0,0,0-6.77,14.93,76,76,0,0,0-2.2,18.85,90.19,90.19,0,0,0,1.8,18.44,43.58,43.58,0,0,0,6,15.06,30.18,30.18,0,0,0,11.31,10.22q7.1,3.78,17.68,3.78a37.76,37.76,0,0,0,16.74-3.45,30.93,30.93,0,0,0,11.65-9.68A42.23,42.23,0,0,0,662,140.93,78.55,78.55,0,0,0,664.12,122Z"/><path class="cls-1" d="M821.38,181.54a3.24,3.24,0,0,1-.46,1.79,3.64,3.64,0,0,1-1.66,1.26,11.72,11.72,0,0,1-3.12.8,34.6,34.6,0,0,1-4.71.27,37.1,37.1,0,0,1-5-.27,10.67,10.67,0,0,1-3.05-.8,3.21,3.21,0,0,1-1.53-1.26,3.73,3.73,0,0,1-.39-1.79V165.75Q791.25,177,781.3,182.21a43.25,43.25,0,0,1-20.17,5.17q-11.94,0-20.1-4a35.36,35.36,0,0,1-13.21-10.82,43.7,43.7,0,0,1-7.23-15.92,95.73,95.73,0,0,1-2.19-22.1V62.11a3.3,3.3,0,0,1,.47-1.8A4,4,0,0,1,720.66,59a10.83,10.83,0,0,1,3.45-.8c1.41-.13,3.18-.2,5.31-.2s3.89.07,5.3.2a10.17,10.17,0,0,1,3.39.8,4.65,4.65,0,0,1,1.79,1.32,3,3,0,0,1,.53,1.8v69.53A73.84,73.84,0,0,0,742,148.43a31.22,31.22,0,0,0,4.64,10.75,21.41,21.41,0,0,0,7.9,6.9,24,24,0,0,0,11.15,2.46q8.22,0,16.38-5.84t17.32-17.12V62.11a3.3,3.3,0,0,1,.47-1.8A4,4,0,0,1,801.61,59a10.69,10.69,0,0,1,3.38-.8c1.37-.13,3.16-.2,5.38-.2s3.89.07,5.31.2A9.42,9.42,0,0,1,819,59a5.37,5.37,0,0,1,1.79,1.32,2.75,2.75,0,0,1,.6,1.8Z"/><path class="cls-1" d="M924,172.78a28.11,28.11,0,0,1-.53,6.11,6.82,6.82,0,0,1-1.59,3.32,10.57,10.57,0,0,1-3.19,2,26,26,0,0,1-4.84,1.52c-1.81.4-3.74.73-5.77,1a48.22,48.22,0,0,1-6.11.4A45.88,45.88,0,0,1,886,184.66a25.69,25.69,0,0,1-10.88-7.43A30.49,30.49,0,0,1,869,164.62a73.73,73.73,0,0,1-1.93-18V76.84H850.31a3.56,3.56,0,0,1-3.18-2.13q-1.2-2.11-1.2-6.9a23,23,0,0,1,.33-4.24,12,12,0,0,1,.87-2.86,3.29,3.29,0,0,1,1.39-1.59,4,4,0,0,1,1.92-.46H867V30.26a3.38,3.38,0,0,1,.47-1.73,3.79,3.79,0,0,1,1.72-1.39,11.39,11.39,0,0,1,3.39-.86,43.1,43.1,0,0,1,5.3-.27,44.87,44.87,0,0,1,5.45.27,10.49,10.49,0,0,1,3.31.86,4.39,4.39,0,0,1,1.73,1.39,3.09,3.09,0,0,1,.53,1.73v28.4h30.65a3.62,3.62,0,0,1,1.86.46,3.81,3.81,0,0,1,1.39,1.59,9.2,9.2,0,0,1,.87,2.86,29.55,29.55,0,0,1,.26,4.24q0,4.78-1.19,6.9a3.59,3.59,0,0,1-3.19,2.13H888.93v66.62q0,12.33,3.65,18.64t13.07,6.3a22.44,22.44,0,0,0,5.44-.59c1.59-.4,3-.82,4.25-1.26s2.3-.87,3.18-1.26a5.91,5.91,0,0,1,2.39-.6,2.58,2.58,0,0,1,1.26.33,2.19,2.19,0,0,1,.93,1.26,15.68,15.68,0,0,1,.6,2.52A25.76,25.76,0,0,1,924,172.78Z"/><path class="cls-1" d="M1055.74,181.54a3,3,0,0,1-.53,1.79,4.14,4.14,0,0,1-1.73,1.26,11.93,11.93,0,0,1-3.31.8,43.39,43.39,0,0,1-5.31.27,44.57,44.57,0,0,1-5.44-.27,12,12,0,0,1-3.32-.8,4.14,4.14,0,0,1-1.73-1.26,3,3,0,0,1-.53-1.79V111.61a68.86,68.86,0,0,0-1.59-16.46,34.13,34.13,0,0,0-4.64-10.75,20.15,20.15,0,0,0-7.9-6.9,25.09,25.09,0,0,0-11.21-2.39q-8.24,0-16.46,5.84T974.79,98.07v83.47a3,3,0,0,1-.53,1.79,4.14,4.14,0,0,1-1.73,1.26,11.93,11.93,0,0,1-3.31.8,44.75,44.75,0,0,1-5.45.27,43.1,43.1,0,0,1-5.3-.27,13,13,0,0,1-3.39-.8,3.59,3.59,0,0,1-1.72-1.26,3.24,3.24,0,0,1-.47-1.79V4.25a3.62,3.62,0,0,1,.47-1.86,3.48,3.48,0,0,1,1.72-1.33,13,13,0,0,1,3.39-.79,43.1,43.1,0,0,1,5.3-.27,44.75,44.75,0,0,1,5.45.27,12,12,0,0,1,3.31.79,4,4,0,0,1,1.73,1.33,3.3,3.3,0,0,1,.53,1.86V75.78q9.42-10,19-14.8A42.17,42.17,0,0,1,1013,56.13q11.94,0,20.1,4A36.33,36.33,0,0,1,1046.32,71a43.11,43.11,0,0,1,7.23,15.86,95,95,0,0,1,2.19,22Z"/><path class="cls-1" d="M1288.24,176.76a16.58,16.58,0,0,1,1.13,4.72,3.26,3.26,0,0,1-1,2.72,6.43,6.43,0,0,1-3.51,1.19,63.1,63.1,0,0,1-6.57.27q-4.12,0-6.57-.2a15.12,15.12,0,0,1-3.72-.67,4,4,0,0,1-1.86-1.26,10.37,10.37,0,0,1-1.12-2l-14.73-41.8h-71.4L1164.82,181a6.9,6.9,0,0,1-1.06,2.06,5.19,5.19,0,0,1-1.92,1.46,11.85,11.85,0,0,1-3.59.86,54.17,54.17,0,0,1-6,.27,48.82,48.82,0,0,1-6.31-.34,6.36,6.36,0,0,1-3.45-1.26,3.37,3.37,0,0,1-.93-2.72,16.61,16.61,0,0,1,1.13-4.71l57.6-159.51a6.85,6.85,0,0,1,1.39-2.39,5.66,5.66,0,0,1,2.52-1.46,19.13,19.13,0,0,1,4.25-.73q2.58-.19,6.57-.2,4.24,0,7,.2a20.86,20.86,0,0,1,4.51.73,5.87,5.87,0,0,1,2.66,1.53,7.32,7.32,0,0,1,1.46,2.45ZM1214.32,36h-.13l-29.59,85.6h59.71Z"/><path class="cls-1" d="M1389.36,149a37.88,37.88,0,0,1-3.38,16.32,33.31,33.31,0,0,1-9.62,12.08,43.54,43.54,0,0,1-14.87,7.43,67.44,67.44,0,0,1-19,2.52,72.17,72.17,0,0,1-22.5-3.52,52.46,52.46,0,0,1-7.76-3.18,22.77,22.77,0,0,1-4.64-3,7.55,7.55,0,0,1-2.13-3.71,25.47,25.47,0,0,1-.66-6.51,29.55,29.55,0,0,1,.26-4.24,14.3,14.3,0,0,1,.67-2.79,2.93,2.93,0,0,1,1.12-1.52,3,3,0,0,1,1.66-.47c1,0,2.41.6,4.32,1.79s4.24,2.5,7,3.92a64.91,64.91,0,0,0,9.89,3.91,43.68,43.68,0,0,0,13.14,1.79,39.26,39.26,0,0,0,10.08-1.19,24.43,24.43,0,0,0,7.83-3.52,15.55,15.55,0,0,0,5.11-5.9,18.86,18.86,0,0,0,1.79-8.5,13.72,13.72,0,0,0-2.59-8.49,24.81,24.81,0,0,0-6.83-6.1,56.36,56.36,0,0,0-9.56-4.71q-5.31-2.05-10.94-4.32a108.93,108.93,0,0,1-11-5.11,42.16,42.16,0,0,1-9.62-7,31.85,31.85,0,0,1-6.83-9.82,32.85,32.85,0,0,1-2.59-13.67,34.13,34.13,0,0,1,2.72-13.47,31.22,31.22,0,0,1,8.16-11.28,41,41,0,0,1,13.6-7.77,56.67,56.67,0,0,1,19-2.92,58.06,58.06,0,0,1,9.55.8,65.28,65.28,0,0,1,8.63,2,41.71,41.71,0,0,1,6.56,2.59,29.26,29.26,0,0,1,4.12,2.45,7.28,7.28,0,0,1,1.86,1.86,5.71,5.71,0,0,1,.66,1.79c.13.67.27,1.49.4,2.46a27.57,27.57,0,0,1,.2,3.58,34,34,0,0,1-.2,3.92,9.73,9.73,0,0,1-.67,2.72,3.51,3.51,0,0,1-1.12,1.52,2.51,2.51,0,0,1-1.46.47,7.35,7.35,0,0,1-3.45-1.46,49.78,49.78,0,0,0-5.84-3.12,65,65,0,0,0-8.43-3.12A38.53,38.53,0,0,0,1351,73.12a34.58,34.58,0,0,0-9.82,1.26,19,19,0,0,0-7,3.58,15.25,15.25,0,0,0-4.11,5.51,17.06,17.06,0,0,0-1.4,6.9,14,14,0,0,0,2.66,8.69,25.29,25.29,0,0,0,6.9,6.18A57.53,57.53,0,0,0,1348,110q5.43,2.13,11.08,4.38t11.15,5a41.5,41.5,0,0,1,9.75,6.76,30.56,30.56,0,0,1,6.83,9.56A31.2,31.2,0,0,1,1389.36,149Z"/><path class="cls-1" d="M1445.1,21.76q0,7.71-2.92,10.49T1431.43,35q-7.7,0-10.55-2.73T1418,22q0-7.7,2.92-10.48t10.75-2.79q7.69,0,10.55,2.72T1445.1,21.76Zm-2.52,159.78a3,3,0,0,1-.53,1.79,4.14,4.14,0,0,1-1.73,1.26,11.92,11.92,0,0,1-3.32.8,44.57,44.57,0,0,1-5.44.27,43.39,43.39,0,0,1-5.31-.27,13,13,0,0,1-3.38-.8,3.54,3.54,0,0,1-1.72-1.26,3.16,3.16,0,0,1-.47-1.79V62.11a3.29,3.29,0,0,1,.47-1.73,3.44,3.44,0,0,1,1.72-1.33,13.49,13.49,0,0,1,3.38-.79,43.39,43.39,0,0,1,5.31-.27,44.57,44.57,0,0,1,5.44.27,12.34,12.34,0,0,1,3.32.79,4,4,0,0,1,1.73,1.33,3.09,3.09,0,0,1,.53,1.73Z"/><path class="cls-1" d="M1573,181.67a2.79,2.79,0,0,1-1.07,2.39,7.47,7.47,0,0,1-2.92,1.2,28.16,28.16,0,0,1-5.44.4,30.61,30.61,0,0,1-5.5-.4,6.57,6.57,0,0,1-3-1.2,3,3,0,0,1-.93-2.39V169.73a59.16,59.16,0,0,1-17.45,13,46.32,46.32,0,0,1-20.37,4.64,55.67,55.67,0,0,1-17-2.45,37.11,37.11,0,0,1-13-7.1,32,32,0,0,1-8.36-11.42,37.76,37.76,0,0,1-3-15.39,35.67,35.67,0,0,1,4.11-17.52,34.2,34.2,0,0,1,11.81-12.34,58.13,58.13,0,0,1,18.85-7.37,117.43,117.43,0,0,1,25.08-2.45h16.45v-9.29a45.93,45.93,0,0,0-1.46-12.21,20.8,20.8,0,0,0-4.71-8.82,20.14,20.14,0,0,0-8.42-5.31,39.19,39.19,0,0,0-12.74-1.79,50.85,50.85,0,0,0-14.54,1.92,77.2,77.2,0,0,0-11.28,4.25q-4.84,2.32-8.09,4.24t-4.84,1.93a3.3,3.3,0,0,1-1.86-.53,4.59,4.59,0,0,1-1.4-1.59,8.54,8.54,0,0,1-.86-2.72,23,23,0,0,1-.26-3.65,23.49,23.49,0,0,1,.46-5.25,7.55,7.55,0,0,1,2.26-3.64,28.8,28.8,0,0,1,6.17-4,67.49,67.49,0,0,1,10.08-4.25,92.28,92.28,0,0,1,12.48-3.18,74.45,74.45,0,0,1,13.67-1.27q12.87,0,21.89,2.92a35.48,35.48,0,0,1,14.6,8.56,33.16,33.16,0,0,1,8.09,14,67.86,67.86,0,0,1,2.53,19.51Zm-21.77-54.54h-18.71a70.35,70.35,0,0,0-15.66,1.53,32.33,32.33,0,0,0-11,4.51,18.64,18.64,0,0,0-6.44,7.17,21.51,21.51,0,0,0-2.06,9.62q0,9.28,5.91,14.79t16.52,5.51a30.73,30.73,0,0,0,16-4.38q7.37-4.38,15.46-13.4Z"/><path class="cls-1" d="M1716.08,181.54a2.9,2.9,0,0,1-.53,1.79,4.1,4.1,0,0,1-1.72,1.26,12.11,12.11,0,0,1-3.32.8,43.28,43.28,0,0,1-5.31.27,44.57,44.57,0,0,1-5.44-.27,12,12,0,0,1-3.32-.8,4.1,4.1,0,0,1-1.72-1.26,2.9,2.9,0,0,1-.53-1.79V111.61a68.28,68.28,0,0,0-1.6-16.46A34.13,34.13,0,0,0,1688,84.4a20.15,20.15,0,0,0-7.9-6.9,25.06,25.06,0,0,0-11.21-2.39q-8.23,0-16.46,5.84t-17.25,17.12v83.47a2.9,2.9,0,0,1-.53,1.79,4.1,4.1,0,0,1-1.72,1.26,12.11,12.11,0,0,1-3.32.8,44.69,44.69,0,0,1-5.44.27,43.28,43.28,0,0,1-5.31-.27,12.92,12.92,0,0,1-3.38-.8,3.57,3.57,0,0,1-1.73-1.26,3.24,3.24,0,0,1-.46-1.79V62.11a3.8,3.8,0,0,1,.39-1.8,3.61,3.61,0,0,1,1.6-1.32,8.83,8.83,0,0,1,3-.8,48.85,48.85,0,0,1,4.91-.2c1.94,0,3.56.07,4.84.2a7.8,7.8,0,0,1,3,.8,4.21,4.21,0,0,1,1.52,1.32,3.3,3.3,0,0,1,.47,1.8V77.9q10.08-11.28,20.1-16.52a43.22,43.22,0,0,1,20.24-5.25q11.94,0,20.11,4A36.22,36.22,0,0,1,1706.66,71a43.11,43.11,0,0,1,7.23,15.86,94.34,94.34,0,0,1,2.19,21.83Z"/><path class="cls-1" d="M105.63,376.69a49.87,49.87,0,0,1-4.44,21.5,46.29,46.29,0,0,1-12.34,16,53.51,53.51,0,0,1-18.58,9.88,77.32,77.32,0,0,1-23,3.32,82.54,82.54,0,0,1-16-1.46,87.84,87.84,0,0,1-13.14-3.58A64.61,64.61,0,0,1,8.43,418,25.5,25.5,0,0,1,3,414.11a9.63,9.63,0,0,1-2.26-4.05A23.63,23.63,0,0,1,0,403.49a35.86,35.86,0,0,1,.27-4.84,11.75,11.75,0,0,1,.79-3.12,3.48,3.48,0,0,1,1.33-1.66,3.62,3.62,0,0,1,1.86-.46q1.85,0,5.24,2.25a80,80,0,0,0,8.69,4.91,85.5,85.5,0,0,0,12.81,5,58.5,58.5,0,0,0,17.31,2.32,44.09,44.09,0,0,0,13.61-2,31.74,31.74,0,0,0,10.61-5.64,24.3,24.3,0,0,0,6.84-8.95,29.2,29.2,0,0,0,2.39-12.08,22.65,22.65,0,0,0-3.32-12.48,33.37,33.37,0,0,0-8.76-9.09,77.63,77.63,0,0,0-12.41-7.16L43,343.84a151.39,151.39,0,0,1-14.2-7.5,60.19,60.19,0,0,1-12.34-9.68,45.26,45.26,0,0,1-8.83-13.07,43.63,43.63,0,0,1-3.38-18,45,45,0,0,1,3.91-19.17A39.62,39.62,0,0,1,19,262.29a48.73,48.73,0,0,1,16.59-8.69,69.75,69.75,0,0,1,20.77-3,67.87,67.87,0,0,1,11.48,1,78.68,78.68,0,0,1,10.88,2.66A59.79,59.79,0,0,1,87.85,258a23.3,23.3,0,0,1,5.24,3.32,9.82,9.82,0,0,1,1.66,2,7.52,7.52,0,0,1,.67,1.86,20.32,20.32,0,0,1,.39,2.72c.09,1.06.14,2.43.14,4.11a41,41,0,0,1-.2,4.25,16.47,16.47,0,0,1-.6,3.12A3.84,3.84,0,0,1,94,281.21a2.57,2.57,0,0,1-1.66.59c-1,0-2.5-.62-4.57-1.86s-4.63-2.63-7.64-4.18a67.07,67.07,0,0,0-10.68-4.24,46.59,46.59,0,0,0-13.87-1.93,36.67,36.67,0,0,0-12.47,1.93,25.43,25.43,0,0,0-8.76,5.11,20.11,20.11,0,0,0-5.17,7.56,24.94,24.94,0,0,0-1.73,9.29,22.38,22.38,0,0,0,3.32,12.34A33.83,33.83,0,0,0,39.61,315a78.63,78.63,0,0,0,12.54,7.3q7,3.32,14.34,6.7t14.33,7.43A59.89,59.89,0,0,1,93.36,346a43.53,43.53,0,0,1,8.89,13A42.74,42.74,0,0,1,105.63,376.69Z"/><path class="cls-1" d="M197.86,412.78a27.5,27.5,0,0,1-.53,6.11,6.82,6.82,0,0,1-1.59,3.32,10.64,10.64,0,0,1-3.18,2,26.38,26.38,0,0,1-4.85,1.52c-1.81.4-3.74.73-5.77,1a48.22,48.22,0,0,1-6.11.4,45.88,45.88,0,0,1-15.92-2.46A25.75,25.75,0,0,1,149,417.23a30.61,30.61,0,0,1-6.17-12.61,73.73,73.73,0,0,1-1.93-18v-69.8H124.21a3.57,3.57,0,0,1-3.18-2.13q-1.2-2.11-1.2-6.9a22.08,22.08,0,0,1,.34-4.24,11.58,11.58,0,0,1,.86-2.86,3.29,3.29,0,0,1,1.39-1.59,4,4,0,0,1,1.93-.46h16.58v-28.4a3.38,3.38,0,0,1,.47-1.73,3.79,3.79,0,0,1,1.72-1.39,11.09,11.09,0,0,1,3.39-.86,43.16,43.16,0,0,1,5.31-.27,44.69,44.69,0,0,1,5.44.27,10.23,10.23,0,0,1,3.31.86,4.39,4.39,0,0,1,1.73,1.39,3.09,3.09,0,0,1,.53,1.73v28.4h30.66a3.6,3.6,0,0,1,1.85.46,3.9,3.9,0,0,1,1.4,1.59,9.49,9.49,0,0,1,.86,2.86,28.16,28.16,0,0,1,.26,4.24c0,3.19-.39,5.49-1.19,6.9a3.59,3.59,0,0,1-3.18,2.13H162.83v66.62q0,12.33,3.65,18.64t13.07,6.3a22.44,22.44,0,0,0,5.44-.59c1.59-.4,3-.82,4.25-1.26s2.3-.87,3.18-1.26a5.91,5.91,0,0,1,2.39-.6,2.58,2.58,0,0,1,1.26.33,2.19,2.19,0,0,1,.93,1.26,15.68,15.68,0,0,1,.6,2.52A24.57,24.57,0,0,1,197.86,412.78Z"/><path class="cls-1" d="M329.11,421.54a3.24,3.24,0,0,1-.46,1.79,3.69,3.69,0,0,1-1.66,1.26,11.72,11.72,0,0,1-3.12.8,34.71,34.71,0,0,1-4.71.27,37.1,37.1,0,0,1-5-.27,10.67,10.67,0,0,1-3.05-.8,3.21,3.21,0,0,1-1.53-1.26,3.73,3.73,0,0,1-.4-1.79V405.75Q299,417,289,422.21a43.28,43.28,0,0,1-20.17,5.17q-11.94,0-20.1-4a35.28,35.28,0,0,1-13.21-10.82,43.7,43.7,0,0,1-7.23-15.92,95.73,95.73,0,0,1-2.19-22.1V302.11a3.24,3.24,0,0,1,.46-1.79,4,4,0,0,1,1.8-1.33,10.83,10.83,0,0,1,3.45-.8c1.41-.13,3.18-.2,5.31-.2s3.89.07,5.3.2a10.17,10.17,0,0,1,3.39.8,4.64,4.64,0,0,1,1.79,1.33,3,3,0,0,1,.53,1.79v69.53a73.84,73.84,0,0,0,1.53,16.79,31.22,31.22,0,0,0,4.64,10.75,21.41,21.41,0,0,0,7.9,6.9,24,24,0,0,0,11.14,2.46q8.24,0,16.39-5.84t17.32-17.12V302.11a3.16,3.16,0,0,1,.47-1.79,3.91,3.91,0,0,1,1.79-1.33,10.69,10.69,0,0,1,3.38-.8c1.37-.13,3.16-.2,5.38-.2s3.89.07,5.3.2a9.42,9.42,0,0,1,3.32.8,5.25,5.25,0,0,1,1.79,1.33,2.71,2.71,0,0,1,.6,1.79Z"/><path class="cls-1" d="M471.9,421.54a3.62,3.62,0,0,1-.46,1.86,3.17,3.17,0,0,1-1.6,1.26,12.81,12.81,0,0,1-3,.73,32,32,0,0,1-4.51.27,33.26,33.26,0,0,1-4.65-.27,14.24,14.24,0,0,1-3.05-.73,3.56,3.56,0,0,1-1.73-1.26,3.3,3.3,0,0,1-.53-1.86V405.75a80.56,80.56,0,0,1-19.57,15.92,44.55,44.55,0,0,1-22.23,5.71q-13.14,0-22.43-5.11a42.14,42.14,0,0,1-15.06-13.8A60.76,60.76,0,0,1,364.67,388,111.91,111.91,0,0,1,362,363.28a107.79,107.79,0,0,1,3.32-27.8,61.74,61.74,0,0,1,9.82-21.16,43.83,43.83,0,0,1,16.12-13.47,50,50,0,0,1,22.23-4.72,40.56,40.56,0,0,1,19.18,4.58,68.37,68.37,0,0,1,17.18,13.47v-69.4a3.71,3.71,0,0,1,.47-1.79,3,3,0,0,1,1.79-1.33,19.91,19.91,0,0,1,3.38-.8,34.12,34.12,0,0,1,5.24-.33,36.8,36.8,0,0,1,5.45.33,16.35,16.35,0,0,1,3.31.8A3.67,3.67,0,0,1,471.3,243a3.08,3.08,0,0,1,.6,1.79Zm-22-84q-8.89-11-17.18-16.79A29.89,29.89,0,0,0,415.37,315a24.62,24.62,0,0,0-14.2,4,30.56,30.56,0,0,0-9.49,10.48,50.45,50.45,0,0,0-5.31,14.73,84.9,84.9,0,0,0-1.66,16.73,110.31,110.31,0,0,0,1.4,17.64A51,51,0,0,0,391,393.87a29.36,29.36,0,0,0,9.16,10.75q5.7,4,14.33,4.05a29.52,29.52,0,0,0,8.43-1.2,31.28,31.28,0,0,0,8.29-4,62.56,62.56,0,0,0,8.89-7.23,108.8,108.8,0,0,0,9.82-10.95Z"/><path class="cls-1" d="M614.29,356.65q0,5.18-2.59,7.36a9,9,0,0,1-5.94,2.19H527.11a73.37,73.37,0,0,0,2,17.92,34.54,34.54,0,0,0,6.66,13.67,30.08,30.08,0,0,0,12.14,8.76q7.47,3,18.27,3.05a75.41,75.41,0,0,0,15.2-1.39,90.3,90.3,0,0,0,11.54-3.12q4.86-1.72,8-3.12a13.11,13.11,0,0,1,4.73-1.4,3.07,3.07,0,0,1,1.67.47,3,3,0,0,1,1.13,1.39,9.53,9.53,0,0,1,.6,2.59,35.33,35.33,0,0,1,.2,4.05,28.53,28.53,0,0,1-.13,3c-.09.85-.2,1.6-.33,2.26a5.72,5.72,0,0,1-.67,1.79,7.54,7.54,0,0,1-1.19,1.53,20,20,0,0,1-4.31,2.39,63.6,63.6,0,0,1-9.29,3.25,130.22,130.22,0,0,1-13.21,2.85,96.53,96.53,0,0,1-16,1.26q-14.73,0-25.81-4.11a47.76,47.76,0,0,1-18.64-12.21,52.22,52.22,0,0,1-11.42-20.31q-3.84-12.19-3.84-28.39a89.26,89.26,0,0,1,4-27.67,58.52,58.52,0,0,1,11.48-20.84A50.12,50.12,0,0,1,538,300.71a59.46,59.46,0,0,1,23.75-4.58q14.07,0,24,4.52A45.18,45.18,0,0,1,602,312.79a48.78,48.78,0,0,1,9.36,17.92,78.37,78.37,0,0,1,3,22Zm-22-6.5q.39-17.25-7.68-27.08t-24-9.82a31.68,31.68,0,0,0-14.29,3.06,30.89,30.89,0,0,0-10.28,8.09,37.15,37.15,0,0,0-6.41,11.75,49.08,49.08,0,0,0-2.53,14Z"/><path class="cls-1" d="M750.45,421.54a3,3,0,0,1-.53,1.79,4.07,4.07,0,0,1-1.73,1.26,11.93,11.93,0,0,1-3.31.8,43.39,43.39,0,0,1-5.31.27,44.57,44.57,0,0,1-5.44-.27,12,12,0,0,1-3.32-.8,4.14,4.14,0,0,1-1.73-1.26,3,3,0,0,1-.53-1.79V351.61A68.86,68.86,0,0,0,727,335.15a34.13,34.13,0,0,0-4.64-10.75,20.15,20.15,0,0,0-7.9-6.9,25.09,25.09,0,0,0-11.21-2.39q-8.24,0-16.46,5.84T669.5,338.07v83.47a3,3,0,0,1-.53,1.79,4.07,4.07,0,0,1-1.73,1.26,11.93,11.93,0,0,1-3.31.8,44.69,44.69,0,0,1-5.44.27,43.16,43.16,0,0,1-5.31-.27,13,13,0,0,1-3.39-.8,3.59,3.59,0,0,1-1.72-1.26,3.24,3.24,0,0,1-.47-1.79V302.11a3.73,3.73,0,0,1,.4-1.79,3.58,3.58,0,0,1,1.59-1.33,9,9,0,0,1,3.06-.8,48.71,48.71,0,0,1,4.91-.2c1.94,0,3.56.07,4.84.2a7.8,7.8,0,0,1,3,.8,4.22,4.22,0,0,1,1.52,1.33,3.24,3.24,0,0,1,.47,1.79V317.9q10.08-11.28,20.1-16.52a43.22,43.22,0,0,1,20.24-5.25q11.94,0,20.1,4.05A36.17,36.17,0,0,1,741,311a43.11,43.11,0,0,1,7.23,15.86,94.34,94.34,0,0,1,2.19,21.83Z"/><path class="cls-1" d="M850,412.78a28.11,28.11,0,0,1-.53,6.11,7,7,0,0,1-1.59,3.32,10.57,10.57,0,0,1-3.19,2,26,26,0,0,1-4.84,1.52q-2.73.6-5.77,1a48.22,48.22,0,0,1-6.11.4A45.88,45.88,0,0,1,812,424.66a25.78,25.78,0,0,1-10.89-7.43A30.73,30.73,0,0,1,795,404.62a74.26,74.26,0,0,1-1.92-18v-69.8H776.33a3.59,3.59,0,0,1-3.19-2.13q-1.18-2.11-1.19-6.9a23,23,0,0,1,.33-4.24,12.51,12.51,0,0,1,.86-2.86,3.35,3.35,0,0,1,1.4-1.59,4,4,0,0,1,1.92-.46h16.59v-28.4a3.37,3.37,0,0,1,.46-1.73,3.82,3.82,0,0,1,1.73-1.39,11.1,11.1,0,0,1,3.38-.86,43.39,43.39,0,0,1,5.31-.27,44.57,44.57,0,0,1,5.44.27,10.3,10.3,0,0,1,3.32.86,4.39,4.39,0,0,1,1.73,1.39,3.09,3.09,0,0,1,.53,1.73v28.4H845.6a3.62,3.62,0,0,1,1.86.46,3.88,3.88,0,0,1,1.39,1.59,9,9,0,0,1,.86,2.86,28,28,0,0,1,.27,4.24q0,4.79-1.19,6.9a3.59,3.59,0,0,1-3.19,2.13H815v66.62q0,12.33,3.65,18.64t13.07,6.3a22.44,22.44,0,0,0,5.44-.59c1.59-.4,3-.82,4.24-1.26s2.3-.87,3.19-1.26a5.87,5.87,0,0,1,2.39-.6,2.58,2.58,0,0,1,1.26.33,2.19,2.19,0,0,1,.93,1.26,14.8,14.8,0,0,1,.59,2.52A24.43,24.43,0,0,1,850,412.78Z"/><path class="cls-1" d="M1071.47,416.76a16.51,16.51,0,0,1,1.12,4.72,3.23,3.23,0,0,1-1,2.72,6.44,6.44,0,0,1-3.52,1.19,63.1,63.1,0,0,1-6.57.27q-4.11,0-6.57-.2a15.12,15.12,0,0,1-3.71-.67,4,4,0,0,1-1.86-1.26,9.86,9.86,0,0,1-1.13-2l-14.73-41.8H962.12L948.05,421a7.14,7.14,0,0,1-1.06,2.06,5.31,5.31,0,0,1-1.93,1.46,11.77,11.77,0,0,1-3.58.86,54.37,54.37,0,0,1-6,.27,48.76,48.76,0,0,1-6.3-.34,6.3,6.3,0,0,1-3.45-1.26,3.33,3.33,0,0,1-.93-2.72,16.27,16.27,0,0,1,1.13-4.71l57.59-159.51a6.87,6.87,0,0,1,1.4-2.39,5.76,5.76,0,0,1,2.52-1.46,19,19,0,0,1,4.24-.73q2.6-.19,6.57-.2,4.24,0,7,.2a21,21,0,0,1,4.51.73,5.92,5.92,0,0,1,2.65,1.53,7,7,0,0,1,1.46,2.45ZM997.55,276h-.13l-29.6,85.6h59.72Z"/><path class="cls-1" d="M1172.59,389a37.74,37.74,0,0,1-3.39,16.32,33.1,33.1,0,0,1-9.62,12.08,43.49,43.49,0,0,1-14.86,7.43,67.52,67.52,0,0,1-19,2.52,72.17,72.17,0,0,1-22.49-3.52,52.46,52.46,0,0,1-7.76-3.18,22.61,22.61,0,0,1-4.65-3,7.62,7.62,0,0,1-2.12-3.71,25,25,0,0,1-.67-6.51,28,28,0,0,1,.27-4.24,15.15,15.15,0,0,1,.66-2.79,2.94,2.94,0,0,1,1.13-1.52,3,3,0,0,1,1.66-.47q1.45,0,4.31,1.79c1.9,1.2,4.25,2.5,7,3.92a64.76,64.76,0,0,0,9.88,3.91,43.73,43.73,0,0,0,13.14,1.79,39.29,39.29,0,0,0,10.09-1.19,24.63,24.63,0,0,0,7.83-3.52,15.63,15.63,0,0,0,5.11-5.9,18.86,18.86,0,0,0,1.79-8.5,13.78,13.78,0,0,0-2.59-8.49,25,25,0,0,0-6.84-6.1,56.24,56.24,0,0,0-9.55-4.71q-5.31-2.06-11-4.32a109.79,109.79,0,0,1-11-5.11,41.94,41.94,0,0,1-9.62-7,31.75,31.75,0,0,1-6.84-9.82,33,33,0,0,1-2.59-13.67,34.31,34.31,0,0,1,2.72-13.47,31.36,31.36,0,0,1,8.17-11.28,40.9,40.9,0,0,1,13.6-7.77,56.65,56.65,0,0,1,19-2.92,58.18,58.18,0,0,1,9.56.8,65.11,65.11,0,0,1,8.62,2,41.47,41.47,0,0,1,6.57,2.59,29,29,0,0,1,4.11,2.45,7.28,7.28,0,0,1,1.86,1.86,6,6,0,0,1,.67,1.79q.19,1,.39,2.46a25.9,25.9,0,0,1,.2,3.58,31.91,31.91,0,0,1-.2,3.92,9.76,9.76,0,0,1-.66,2.72,3.52,3.52,0,0,1-1.13,1.52,2.49,2.49,0,0,1-1.46.47,7.43,7.43,0,0,1-3.45-1.46,49,49,0,0,0-5.84-3.12,65.34,65.34,0,0,0-8.42-3.12,38.58,38.58,0,0,0-11.08-1.46,34.58,34.58,0,0,0-9.82,1.26,18.87,18.87,0,0,0-7,3.58,15.16,15.16,0,0,0-4.12,5.51,17.22,17.22,0,0,0-1.39,6.9,14,14,0,0,0,2.65,8.7,25.33,25.33,0,0,0,6.91,6.17,57.42,57.42,0,0,0,9.68,4.77q5.44,2.13,11.08,4.38t11.15,5.05a41.77,41.77,0,0,1,9.76,6.76,30.73,30.73,0,0,1,6.83,9.56A31.35,31.35,0,0,1,1172.59,389Z"/><path class="cls-1" d="M1278.88,389a37.74,37.74,0,0,1-3.38,16.32,33.1,33.1,0,0,1-9.62,12.08,43.49,43.49,0,0,1-14.86,7.43,67.57,67.57,0,0,1-19,2.52,72.17,72.17,0,0,1-22.49-3.52,52.62,52.62,0,0,1-7.77-3.18,22.77,22.77,0,0,1-4.64-3A7.54,7.54,0,0,1,1195,414a25,25,0,0,1-.67-6.51,28,28,0,0,1,.27-4.24,14.38,14.38,0,0,1,.66-2.79,2.94,2.94,0,0,1,1.13-1.52,3,3,0,0,1,1.66-.47q1.46,0,4.31,1.79c1.9,1.2,4.25,2.5,7,3.92a65.33,65.33,0,0,0,9.89,3.91,43.68,43.68,0,0,0,13.14,1.79,39.21,39.21,0,0,0,10.08-1.19,24.43,24.43,0,0,0,7.83-3.52,15.55,15.55,0,0,0,5.11-5.9,18.73,18.73,0,0,0,1.79-8.5,13.77,13.77,0,0,0-2.58-8.49,25,25,0,0,0-6.84-6.1,56.62,56.62,0,0,0-9.55-4.71q-5.31-2.06-11-4.32a111,111,0,0,1-11-5.11,42.16,42.16,0,0,1-9.62-7,31.73,31.73,0,0,1-6.83-9.82,32.85,32.85,0,0,1-2.59-13.67A34.31,34.31,0,0,1,1200,318.1a31.22,31.22,0,0,1,8.16-11.28,41,41,0,0,1,13.61-7.77,56.61,56.61,0,0,1,19-2.92,58.06,58.06,0,0,1,9.55.8,64.91,64.91,0,0,1,8.63,2,42.25,42.25,0,0,1,6.57,2.59,29.64,29.64,0,0,1,4.11,2.45,7.28,7.28,0,0,1,1.86,1.86,5.71,5.71,0,0,1,.66,1.79c.14.67.27,1.49.4,2.46a27.57,27.57,0,0,1,.2,3.58,34,34,0,0,1-.2,3.92,9.76,9.76,0,0,1-.66,2.72,3.52,3.52,0,0,1-1.13,1.52,2.49,2.49,0,0,1-1.46.47,7.35,7.35,0,0,1-3.45-1.46,49,49,0,0,0-5.84-3.12,65,65,0,0,0-8.43-3.12,38.53,38.53,0,0,0-11.08-1.46,34.63,34.63,0,0,0-9.82,1.26,18.9,18.9,0,0,0-7,3.58,15.16,15.16,0,0,0-4.12,5.51,17.05,17.05,0,0,0-1.39,6.9,14,14,0,0,0,2.65,8.7,25.43,25.43,0,0,0,6.9,6.17,57.53,57.53,0,0,0,9.69,4.77q5.44,2.13,11.08,4.38t11.15,5.05a41.5,41.5,0,0,1,9.75,6.76,30.75,30.75,0,0,1,6.84,9.56A31.35,31.35,0,0,1,1278.88,389Z"/><path class="cls-1" d="M1421.28,360.5a89.61,89.61,0,0,1-3.85,26.87A59.38,59.38,0,0,1,1406,408.54a52,52,0,0,1-19.11,13.86q-11.47,5-26.61,5-14.73,0-25.68-4.38a47,47,0,0,1-18.24-12.74,53.78,53.78,0,0,1-10.88-20.3,94.14,94.14,0,0,1-3.59-27.07,91,91,0,0,1,3.78-26.88A58.53,58.53,0,0,1,1317,314.85a51.46,51.46,0,0,1,19-13.81q11.42-4.91,26.67-4.91,14.74,0,25.68,4.38a47,47,0,0,1,18.25,12.74,55,55,0,0,1,11,20.31A92.17,92.17,0,0,1,1421.28,360.5Zm-22.7,1.46a89.64,89.64,0,0,0-1.8-18.32,45.31,45.31,0,0,0-6-15.13,29.62,29.62,0,0,0-11.25-10.28q-7.1-3.78-17.68-3.78a37.78,37.78,0,0,0-16.8,3.45,30.75,30.75,0,0,0-11.58,9.75,43.89,43.89,0,0,0-6.77,14.93,76,76,0,0,0-2.2,18.85,90.19,90.19,0,0,0,1.8,18.44,43.58,43.58,0,0,0,6,15.06,30.18,30.18,0,0,0,11.31,10.22q7.1,3.78,17.68,3.78a37.76,37.76,0,0,0,16.74-3.45,30.93,30.93,0,0,0,11.65-9.68,42.23,42.23,0,0,0,6.69-14.87A78.55,78.55,0,0,0,1398.58,362Z"/><path class="cls-1" d="M1539.39,403.36c0,1.51-.05,2.81-.14,3.92a14.21,14.21,0,0,1-.46,2.78,9.94,9.94,0,0,1-.8,2,12.88,12.88,0,0,1-2.12,2.52,33,33,0,0,1-5.64,4.12,53.73,53.73,0,0,1-9,4.38,68.21,68.21,0,0,1-10.81,3.12,60.65,60.65,0,0,1-12.08,1.19,57.77,57.77,0,0,1-22.83-4.25,43.09,43.09,0,0,1-16.65-12.4,56.41,56.41,0,0,1-10.22-20,97,97,0,0,1-3.51-27.41q0-17.64,4.31-30.32t11.81-20.77a46.74,46.74,0,0,1,17.65-12,60.53,60.53,0,0,1,22-3.91,56.88,56.88,0,0,1,11.08,1.06,60.64,60.64,0,0,1,9.89,2.79,43.55,43.55,0,0,1,8,4A31.33,31.33,0,0,1,1535,308a17.25,17.25,0,0,1,2.19,2.52,9.23,9.23,0,0,1,1,2.19,12.91,12.91,0,0,1,.53,2.85c.09,1.06.14,2.39.14,4q0,5.17-1.2,7.23a3.41,3.41,0,0,1-2.92,2.06c-1.33,0-2.85-.73-4.58-2.19a71.6,71.6,0,0,0-6.57-4.84,49.8,49.8,0,0,0-9.62-4.85,36.76,36.76,0,0,0-13.33-2.19q-15.8,0-24.22,12.15T1468,362.09a83.4,83.4,0,0,0,2.19,20.24,41.7,41.7,0,0,0,6.44,14.53,26.54,26.54,0,0,0,10.41,8.69,33.4,33.4,0,0,0,14.14,2.85,34.24,34.24,0,0,0,13.27-2.38,55.46,55.46,0,0,0,9.88-5.25q4.18-2.85,7-5.17t4.44-2.32a2.47,2.47,0,0,1,1.6.53,4,4,0,0,1,1.12,1.79,13.63,13.63,0,0,1,.67,3.18C1539.32,400.07,1539.39,401.59,1539.39,403.36Z"/><path class="cls-1" d="M1592.87,261.76q0,7.71-2.92,10.49T1579.2,275q-7.7,0-10.55-2.73T1565.79,262q0-7.69,2.92-10.48t10.75-2.79q7.69,0,10.55,2.72T1592.87,261.76Zm-2.53,159.78a2.9,2.9,0,0,1-.53,1.79,4.1,4.1,0,0,1-1.72,1.26,12,12,0,0,1-3.32.8,44.57,44.57,0,0,1-5.44.27,43.39,43.39,0,0,1-5.31-.27,13,13,0,0,1-3.38-.8,3.62,3.62,0,0,1-1.73-1.26,3.24,3.24,0,0,1-.46-1.79V302.11a3.37,3.37,0,0,1,.46-1.73,3.51,3.51,0,0,1,1.73-1.33,13.49,13.49,0,0,1,3.38-.79,43.39,43.39,0,0,1,5.31-.27,44.57,44.57,0,0,1,5.44.27,12.43,12.43,0,0,1,3.32.79,4,4,0,0,1,1.72,1.33,3,3,0,0,1,.53,1.73Z"/><path class="cls-1" d="M1720.79,421.67a2.78,2.78,0,0,1-1.06,2.39,7.54,7.54,0,0,1-2.92,1.2,28.24,28.24,0,0,1-5.44.4,30.61,30.61,0,0,1-5.5-.4,6.57,6.57,0,0,1-3-1.2,3,3,0,0,1-.93-2.39V409.73a59.16,59.16,0,0,1-17.45,13,46.36,46.36,0,0,1-20.37,4.64,55.67,55.67,0,0,1-17.05-2.45,37.11,37.11,0,0,1-13-7.1,32,32,0,0,1-8.36-11.42,37.76,37.76,0,0,1-3-15.39,35.67,35.67,0,0,1,4.11-17.52,34.2,34.2,0,0,1,11.81-12.34,57.93,57.93,0,0,1,18.84-7.36,116.92,116.92,0,0,1,25.09-2.46H1699v-9.29a46.34,46.34,0,0,0-1.46-12.21,20.8,20.8,0,0,0-4.71-8.82,20.18,20.18,0,0,0-8.43-5.31,39.1,39.1,0,0,0-12.74-1.79,50.82,50.82,0,0,0-14.53,1.92,77.2,77.2,0,0,0-11.28,4.25q-4.85,2.32-8.09,4.24c-2.17,1.29-3.78,1.93-4.85,1.93a3.27,3.27,0,0,1-1.85-.53,4.49,4.49,0,0,1-1.4-1.59,8.3,8.3,0,0,1-.86-2.72,22.9,22.9,0,0,1-.27-3.65,23.39,23.39,0,0,1,.47-5.25,7.55,7.55,0,0,1,2.26-3.64,28.8,28.8,0,0,1,6.17-4.05,67.49,67.49,0,0,1,10.08-4.25A91.52,91.52,0,0,1,1660,297.4a74.43,74.43,0,0,1,13.66-1.27q12.87,0,21.9,2.92a35.48,35.48,0,0,1,14.6,8.56,33.26,33.26,0,0,1,8.09,14,67.88,67.88,0,0,1,2.52,19.51ZM1699,367.13h-18.71a70.35,70.35,0,0,0-15.66,1.53,32.33,32.33,0,0,0-11,4.51,18.64,18.64,0,0,0-6.44,7.17,21.51,21.51,0,0,0-2.06,9.62q0,9.29,5.91,14.79t16.52,5.51a30.73,30.73,0,0,0,16-4.38q7.37-4.38,15.46-13.4Z"/><path class="cls-1" d="M1862.39,298.66c2.66,0,4.47.59,5.44,1.79a8.08,8.08,0,0,1,1.46,5.24V421.54a3,3,0,0,1-.53,1.79,4.06,4.06,0,0,1-1.79,1.26,13,13,0,0,1-3.38.8,42,42,0,0,1-5.18.27,44.57,44.57,0,0,1-5.44-.27,12.92,12.92,0,0,1-3.38-.8,4.09,4.09,0,0,1-1.8-1.26,3,3,0,0,1-.53-1.79V316.84h-61.7v66.62q0,12.33,3.65,18.64t13.07,6.3a22.5,22.5,0,0,0,5.44-.59c1.59-.4,3-.82,4.24-1.26s2.3-.87,3.19-1.26a5.87,5.87,0,0,1,2.39-.6,2.58,2.58,0,0,1,1.26.33,2.19,2.19,0,0,1,.93,1.26,14.8,14.8,0,0,1,.59,2.52,24.43,24.43,0,0,1,.27,4,27.1,27.1,0,0,1-.53,6,7.41,7.41,0,0,1-1.59,3.32,9.71,9.71,0,0,1-3.19,2.06,26,26,0,0,1-4.84,1.52q-2.73.6-5.77,1a48.34,48.34,0,0,1-6.11.4,45.88,45.88,0,0,1-15.92-2.46,25.72,25.72,0,0,1-10.89-7.43,30.73,30.73,0,0,1-6.17-12.61,74.26,74.26,0,0,1-1.92-18v-69.8h-16.72a3.59,3.59,0,0,1-3.19-2.13q-1.18-2.11-1.19-6.9a23,23,0,0,1,.33-4.24,12.51,12.51,0,0,1,.86-2.86,3.35,3.35,0,0,1,1.4-1.59,4,4,0,0,1,1.92-.46h16.59v-28.4a3.37,3.37,0,0,1,.46-1.73,3.82,3.82,0,0,1,1.73-1.39,11.1,11.1,0,0,1,3.38-.86,43.39,43.39,0,0,1,5.31-.27,44.57,44.57,0,0,1,5.44.27,10.3,10.3,0,0,1,3.32.86,4.28,4.28,0,0,1,1.72,1.39,3,3,0,0,1,.54,1.73v28.4Zm9.42-36.9q0,7.71-2.92,10.49c-1.94,1.86-5.53,2.79-10.74,2.79s-8.65-.91-10.55-2.73-2.86-5.24-2.86-10.28,1-8.63,2.92-10.48,5.53-2.79,10.75-2.79,8.65.91,10.55,2.72S1871.81,256.72,1871.81,261.76Z"/><path class="cls-1" d="M2021,360.5a89.61,89.61,0,0,1-3.85,26.87,59.54,59.54,0,0,1-11.48,21.17,52,52,0,0,1-19.11,13.86q-11.49,5-26.61,5-14.73,0-25.68-4.38A47,47,0,0,1,1916,410.26a54.06,54.06,0,0,1-10.88-20.3,94.15,94.15,0,0,1-3.58-27.07,91,91,0,0,1,3.78-26.88,58.38,58.38,0,0,1,11.42-21.16,51.46,51.46,0,0,1,19-13.81q11.42-4.91,26.67-4.91,14.73,0,25.68,4.38a47,47,0,0,1,18.25,12.74,55,55,0,0,1,10.95,20.31A92.17,92.17,0,0,1,2021,360.5Zm-22.7,1.46a88.93,88.93,0,0,0-1.81-18.32,45.09,45.09,0,0,0-6-15.13,29.62,29.62,0,0,0-11.25-10.28q-7.11-3.78-17.68-3.78a37.75,37.75,0,0,0-16.8,3.45,30.86,30.86,0,0,0-11.59,9.75,43.87,43.87,0,0,0-6.76,14.93,76,76,0,0,0-2.21,18.85,89.48,89.48,0,0,0,1.81,18.44,43.39,43.39,0,0,0,6,15.06,30.18,30.18,0,0,0,11.31,10.22q7.09,3.78,17.68,3.78a37.75,37.75,0,0,0,16.73-3.45,30.78,30.78,0,0,0,11.65-9.68,42.07,42.07,0,0,0,6.7-14.87A78.55,78.55,0,0,0,1998.28,362Z"/><path class="cls-1" d="M2156.07,421.54a3,3,0,0,1-.53,1.79,4.14,4.14,0,0,1-1.73,1.26,11.93,11.93,0,0,1-3.31.8,43.39,43.39,0,0,1-5.31.27,44.46,44.46,0,0,1-5.44-.27,11.92,11.92,0,0,1-3.32-.8,4.14,4.14,0,0,1-1.73-1.26,3,3,0,0,1-.53-1.79V351.61a68.86,68.86,0,0,0-1.59-16.46,34.13,34.13,0,0,0-4.64-10.75,20.15,20.15,0,0,0-7.9-6.9,25.09,25.09,0,0,0-11.21-2.39q-8.23,0-16.46,5.84t-17.25,17.12v83.47a3,3,0,0,1-.53,1.79,4.14,4.14,0,0,1-1.73,1.26,11.92,11.92,0,0,1-3.32.8,44.57,44.57,0,0,1-5.44.27,43.1,43.1,0,0,1-5.3-.27,13,13,0,0,1-3.39-.8,3.59,3.59,0,0,1-1.72-1.26,3.24,3.24,0,0,1-.47-1.79V302.11a3.62,3.62,0,0,1,.4-1.79,3.58,3.58,0,0,1,1.59-1.33,8.9,8.9,0,0,1,3.05-.8,49,49,0,0,1,4.91-.2c1.95,0,3.57.07,4.85.2a7.74,7.74,0,0,1,3,.8,4.18,4.18,0,0,1,1.53,1.33,3.24,3.24,0,0,1,.47,1.79V317.9q10.08-11.28,20.1-16.52a43.19,43.19,0,0,1,20.24-5.25q11.94,0,20.1,4.05A36.33,36.33,0,0,1,2146.65,311a43.11,43.11,0,0,1,7.23,15.86,94.34,94.34,0,0,1,2.19,21.83Z"/></g></g></svg>