<svg xmlns="http://www.w3.org/2000/svg" viewBox="0 0 1411.61 192.96"><defs><style>.cls-1{fill:#625971;}</style></defs><title>Asset 13</title><g id="Layer_2" data-name="Layer 2"><g id="Layer_1-2" data-name="Layer 1"><path class="cls-1" d="M0,26.63C0,9.79,7.34,0,27.45,0H55.17C75.28,0,82.62,9.79,82.62,26.36V51.64c0,1.36-.82,1.9-2.17,1.9H56a1.93,1.93,0,0,1-2.18-1.9V28.81c0-1.09-.27-1.36-1.36-1.36H30.17c-1.09,0-1.36.27-1.36,1.36V81.26c0,1.09.27,1.36,1.36,1.36h25c21.47,0,27.45,9.78,27.45,26.09v57.62c0,16.85-6,26.63-27.18,26.63H28c-21.74,0-28-9.78-28-26.09v-28C0,137.52.82,137,2.17,137H26.63a1.93,1.93,0,0,1,2.18,1.91v25.27c0,1.09.27,1.36,1.36,1.36H52.45c1.09,0,1.36-.27,1.36-1.36V111.43c0-1.09-.27-1.36-1.36-1.36h-25C7.88,110.07,0,106.26,0,84Z"/><path class="cls-1" d="M167.14,191.6a2.12,2.12,0,0,1-2.17-2.17l-25.55-90.5v90.5c0,1.63-.81,2.17-2.17,2.17H113.33a2.12,2.12,0,0,1-2.17-2.17V3.53a2,2,0,0,1,2.17-2.17h24.46A2,2,0,0,1,140,3.53L165.51,94V3.53a2,2,0,0,1,2.18-2.17H191.6a2.14,2.14,0,0,1,2.18,2.17v185.9a2,2,0,0,1-2.18,2.17Z"/><path class="cls-1" d="M223.67,166.87V26.63C223.67,9.79,231,0,251.12,0h27.72C299,0,306.29,9.79,306.29,26.36v140c0,16.85-6,26.63-27.17,26.63H251.67C229.92,193,223.67,183.18,223.67,166.87ZM276.13,27.45H253.84c-1.09,0-1.36.27-1.36,1.36V164.15c0,1.09.27,1.36,1.36,1.36h22.29c1.08,0,1.36-.27,1.36-1.36V28.81C277.49,27.72,277.21,27.45,276.13,27.45Z"/><path class="cls-1" d="M423.16,191.6c-1.63,0-1.9-1.36-2.17-2.17L403.32,82.35,386.47,189.43a2.12,2.12,0,0,1-2.17,2.17h-28a2.12,2.12,0,0,1-2.17-2.17L322.6,3.53a2,2,0,0,1,2.18-2.17h25.55a2.14,2.14,0,0,1,2.17,2.17l17.67,116.59L388.1,3.53a2,2,0,0,1,2.18-2.17h26.9a2.14,2.14,0,0,1,2.18,2.17L437,120.12,455,3.53a2,2,0,0,1,2.17-2.17h25.55a2,2,0,0,1,2.17,2.17l-31.52,185.9a2.13,2.13,0,0,1-2.18,2.17Z"/><path class="cls-1" d="M591.66,95.94l-15.49,52.72c-.54,1.9-1.36,4.08-3.53,4.35H552.53c-2.18-.27-2.72-2.45-3.54-4.35L533.5,96.75v92.68c0,1.63-.81,2.17-2.17,2.17H507.41a2.12,2.12,0,0,1-2.17-2.17V3.53a2,2,0,0,1,2.17-2.17h23.1c3,0,3.26,2.17,3.81,3.8l28.26,96.76L590.85,5.16c.54-1.63.81-3.8,4.07-3.8h22.83a2,2,0,0,1,2.18,2.17v185.9a2.13,2.13,0,0,1-2.18,2.17H593.83a2,2,0,0,1-2.17-2.17Z"/><path class="cls-1" d="M649.82,166.87V26.63C649.82,9.79,657.16,0,677.27,0H705c20.11,0,27.45,9.79,27.45,26.36v140c0,16.85-6,26.63-27.18,26.63H677.82C656.07,193,649.82,183.18,649.82,166.87ZM702.28,27.45H680c-1.09,0-1.36.27-1.36,1.36V164.15c0,1.09.27,1.36,1.36,1.36h22.29c1.08,0,1.35-.27,1.35-1.36V28.81C703.63,27.72,703.36,27.45,702.28,27.45Z"/><path class="cls-1" d="M762.34,189.43V3.53a2,2,0,0,1,2.17-2.17h53c20.11,0,27.45,9.78,27.45,26.36V72.56c0,14.41-3.81,19.84-8.7,23.92,4.89,4.08,8.7,9.51,8.7,23.92V165c0,16.85-6,26.63-27.18,26.63H764.51A2.12,2.12,0,0,1,762.34,189.43ZM791.15,28.81V82.62h23.64c1.09,0,1.36-.27,1.36-1.36V30.17c0-1.09-.27-1.36-1.36-1.36Zm0,81.26v54.08h23.64c1.09,0,1.36-.27,1.36-1.36V111.43c0-1.09-.27-1.36-1.36-1.36Z"/><path class="cls-1" d="M877,191.6a2.13,2.13,0,0,1-2.18-2.17V3.53A2,2,0,0,1,877,1.36h24.46a2,2,0,0,1,2.17,2.17v185.9c0,1.63-.82,2.17-2.17,2.17Z"/><path class="cls-1" d="M938.45,191.6a2.13,2.13,0,0,1-2.18-2.17V3.53a2,2,0,0,1,2.18-2.17h24.46a2,2,0,0,1,2.17,2.17V164.15h26.09a2.15,2.15,0,0,1,2.18,2.18v23.1c0,1.63-.82,2.17-2.18,2.17Z"/><path class="cls-1" d="M1015.9,191.6a2.12,2.12,0,0,1-2.17-2.17V3.53a2,2,0,0,1,2.17-2.17h50.55a2.14,2.14,0,0,1,2.18,2.17v23.1a1.93,1.93,0,0,1-2.18,1.91h-23.91V81.26h23.91a2.15,2.15,0,0,1,2.18,2.18v23.1a2,2,0,0,1-2.18,2.17h-23.91v55.44h23.91a2.11,2.11,0,0,1,2.18,1.9v23.38a2,2,0,0,1-2.18,2.17Z"/><path class="cls-1" d="M1143.36,26.63c0-16.84,7.34-26.63,27.45-26.63h27.72C1218.64,0,1226,9.79,1226,26.36V51.64c0,1.36-.81,1.9-2.17,1.9h-24.46a1.93,1.93,0,0,1-2.18-1.9V28.81c0-1.09-.27-1.36-1.36-1.36h-22.28c-1.09,0-1.36.27-1.36,1.36V81.26c0,1.09.27,1.36,1.36,1.36h25c21.47,0,27.45,9.78,27.45,26.09v57.62c0,16.85-6,26.63-27.18,26.63h-27.45c-21.74,0-28-9.78-28-26.09v-28c0-1.36.82-1.91,2.18-1.91H1170a1.93,1.93,0,0,1,2.17,1.91v25.27c0,1.09.27,1.36,1.36,1.36h22.28c1.09,0,1.36-.27,1.36-1.36V111.43c0-1.09-.27-1.36-1.36-1.36h-25c-19.57,0-27.45-3.81-27.45-26.09Z"/><path class="cls-1" d="M1303.44,1.36a2.13,2.13,0,0,1,2.18,2.17l30.71,185.9a2,2,0,0,1-2.18,2.17h-25.54a2.14,2.14,0,0,1-2.18-2.17L1300.18,144h-22.56l-6.79,45.39a2,2,0,0,1-2.17,2.17h-25.55a2,2,0,0,1-2.18-2.17l32.35-185.9a2.12,2.12,0,0,1,2.17-2.17Zm-21.74,115.5h15l-7.07-52.45Z"/><path class="cls-1" d="M1358.89,191.6a2.13,2.13,0,0,1-2.18-2.17V3.53a2,2,0,0,1,2.18-2.17h50.55a2.14,2.14,0,0,1,2.17,2.17v23.1a1.93,1.93,0,0,1-2.17,1.91h-23.92V81.26h23.92a2.15,2.15,0,0,1,2.17,2.18v23.1a2,2,0,0,1-2.17,2.17h-23.92v55.44h23.92a2.1,2.1,0,0,1,2.17,1.9v23.38a2,2,0,0,1-2.17,2.17Z"/></g></g></svg>