<svg xmlns="http://www.w3.org/2000/svg" viewBox="0 0 483.81 182.04"><defs><style>.cls-1{fill:#625971;}.cls-2{fill:#fbc911;}</style></defs><title>Asset 1</title><g id="Layer_2" data-name="Layer 2"><g id="Layer_2-2" data-name="Layer 2"><path class="cls-1" d="M333.6,87.06c-5.81-.27-16.56-.12-19.62,6a8,8,0,0,0-.92,3.61,1.5,1.5,0,0,1,.34.11A9.86,9.86,0,0,0,317,97.82a1.31,1.31,0,0,1,.1-.45c.34-.84.54-1.92,1.42-2.38a1.7,1.7,0,0,1,2,.32c.06.06.1.13.15.19a1.34,1.34,0,0,1,.84,1.22,3.1,3.1,0,0,1-.38,1.77,2.55,2.55,0,0,1-.4.72c-1.64,2-4.52,1.6-6.89.73,1.94,4.23,7.19,7.57,11,9.81a1.29,1.29,0,0,1,1.37.32c1.7,1.65,7-.72,11.68-4.49a6.86,6.86,0,0,1-3.86-4.53c-.2-1.12-.06-2.56,1.07-3.16,1.43-.76,2.66.53,3.42,1.6a1.37,1.37,0,0,1,0,1.42,2.29,2.29,0,0,1-1,.92,5.71,5.71,0,0,0,2.76,1.62C347.13,96.82,350.52,87.86,333.6,87.06Zm-5.06,7a24,24,0,0,0-1,7.55.92.92,0,0,1-1.84,0,25.09,25.09,0,0,1,1.06-8C327.15,92.48,328.93,93,328.54,94.09Z"/><path class="cls-1" d="M342.9,41a2.88,2.88,0,0,0-1.42,2c.07,2.79,1.94,4.48,4.56,5.1,1.47.35,4.58.61,5.69-.77.8-1,.26-1.82-.46-2.77C349.35,42,346.11,40,342.9,41Z"/><path class="cls-1" d="M400.44,51.7c5.18-3.71-3.32-7-7.9-4.73-1.52.75-2.71,4-2.07,4.74,1.88,2.35,3,3.42,6.06,2.59C399.12,53.61,398.57,53,400.44,51.7Z"/><path class="cls-2" d="M474.75,24.72c-7-6.21-15.88-10.82-24.33-14.65-.49-.23-1-.44-1.47-.65C443.78,4.68,437.8.72,430.83.5a25.25,25.25,0,0,0-2.7-.43,17,17,0,0,0-11.22,3c-2.83,6.31-4.47,13.44-3,20.29,1.25,5.9,4.85,10.87,8.56,15.48,6.2,7.72,12.5,15,14.48,25.07,2.32,11.77-3.11,24.69,5.89,34.59a26.87,26.87,0,0,0,10.26,6.77,9.16,9.16,0,0,0,6-2c3.56-2.8,4.7-7.68,6.28-11.75,2-5.22,4.67-16.47,5.34-20.67,2.5-15.75,13.63-19.5,12.67-23.81a25.75,25.75,0,0,0,.35-2.78C484.25,36.57,480.36,29.72,474.75,24.72Z"/><path class="cls-2" d="M305.79,78.12l.18-.34c.8-3.18,5.72-6.87,7.19-9.83,2.45-5,2.5-8.4,4.28-13.73,2.64-7.89,2.77-16.48,7.38-23.69,4.87-7.63,13.23-10,21.26-13,8.77-3.25,14.77-8.76,18-16.41-10.91-1.62-22.89-.35-32.85,2a52,52,0,0,0-14.08,5.32,35.85,35.85,0,0,0-6.37,1.79,36.87,36.87,0,0,0-7.32,8.85c-4,7.23-1.4,15.58-3.14,23.38a25,25,0,0,0,0,12.71,16.83,16.83,0,0,1,.15,8c-.48,2-1.17,4-1.84,6l-.29,6.95C298.18,80,304,81.65,305.79,78.12Z"/><path class="cls-2" d="M323.67,113.56a1.17,1.17,0,0,1,.42-.79l-.18-.08c-6.24-3.61-15.41-10.13-13.92-18a43.7,43.7,0,0,0-5.53,11.34,45.3,45.3,0,0,0,0,11.16,1.53,1.53,0,0,1,.41.62c1.82,5.3,4.64,15.32,10.39,10.12C318.29,125.23,323.12,117.61,323.67,113.56Z"/><path class="cls-2" d="M319.25,131.48c.9,4.39,12.42,8.13,14.71,8.07a16.16,16.16,0,0,0,9.65-2.38c-8.66-4.68-15.34-13.63-14.59-23.65a6.27,6.27,0,0,1-2.41-.1,1.44,1.44,0,0,1,.14.89C326,119.7,318.45,127.61,319.25,131.48Z"/><path class="cls-2" d="M449,147a4.92,4.92,0,0,0,.89-5.87A36,36,0,0,1,445,126.26,39.37,39.37,0,0,1,447.31,110a1.54,1.54,0,0,1,.05-.17,2.21,2.21,0,0,0-4.17-1.39c-1.61,3.47-4.12,6.52-6.3,9.71-2.84,4.16-5.83,8.58-10,11.53-4.47,3.16-10.14,4.88-15.12,7.05a108.87,108.87,0,0,1-17.92,6.38c-1.76.42,20.06-9.4,29.16-14.35,5-2.73,8.31-7.4,11.47-12,2.89-4.23,6.52-8.28,7.45-13.47A1.11,1.11,0,0,1,442,103a2,2,0,0,0-.43-1.94A24.14,24.14,0,0,1,436,88.9c-1-6.33.57-12.69,0-19.05-1.23-14.75-10.6-24.13-19.41-34.74C407.09,23.7,412.94,9.54,412,9.2c-2.13-.75-15.7-.62-20,3.25a42.92,42.92,0,0,0-2.91,4.26.81.81,0,0,1-1.47-.61c.68-2.87.89-6-.5-7.9C383.81,3.61,369.18,2,367.37,1.58a1.37,1.37,0,0,0-1.54.83,28.85,28.85,0,0,1-9.28,12.28C348.17,21,336,20.94,328.67,28.81c-7,7.58-6.2,18.31-9.83,27.36-.79,2-5.72,30.72-2.72,31.28,2.06.4,2.25-2,4.09-2.62,20.13-6.63,33.17-24.11,32.6-22.39C349,73.9,339,79.3,328.56,84c-1.18.54-2.37,1.07-3.54,1.62a41.17,41.17,0,0,1,15.05.58c4.19,1,9.36,3.81,9.88,8.62s-3.83,8.56-6.93,11.46l-.68.63a1.52,1.52,0,0,1-.35.32,40.64,40.64,0,0,1-8.21,6.13,2.12,2.12,0,0,0-1.13,1.82C332,127.68,343.49,137,355.08,139a45.8,45.8,0,0,0,20.14-.81c5.78-1.7,10.88-5.11,16.44-7.35,1.68-.68-12.84,10-20.73,11.15a50.07,50.07,0,0,1-20.7-1.18c-.64-.19-1.29-.41-1.92-.64a2.14,2.14,0,0,0-1.9.23,19.43,19.43,0,0,1-6.94,2.81c-.64.11-9.66,20.94-10.48,28.16-.2,1.77-.28,6.1,3.43,6.86,11.84,2.41,21,3.84,34,3.84a128.09,128.09,0,0,0,20.39-1.63.81.81,0,0,0,.23-1.53c-5.15-2.68-8.94-6.19-10.63-11.52-.41-1.29,4.65,5.25,19.54,11.07a.89.89,0,0,0,.51,0C418.36,173.14,433.65,162.11,449,147ZM354,48.86c-1.83,2.61-6.07,2.74-8.84,2.06a8.22,8.22,0,0,1-6.05-5.06,1.36,1.36,0,0,0-2.21-.51c-1.09,1-6,1.36-4.58.39,5.16-3.54,10-10.34,16.79-6.2C351.87,41.21,356.54,45.26,354,48.86Zm25.44,64.2c-.6,1.7-2.14.94-2-.86,1.06-12.33-6.92-18.46-5.25-17.75C379.84,97.7,382,105.85,379.45,113.06Zm10-58.24c-.73-.9-.57-2.3-2-1.42-.66.39-6.17,5.61-5.24,4.17,2.73-4.28,3.68-11.13,9.12-13.13,6.72-2.47,13.78,3.2,20,4.85,1.44.38-3,2.09-4.05,2.06-3.59-.07-3.56,1.22-5.39,3.32-1.58,1.82-3.1,2.94-5.59,3.07A8.44,8.44,0,0,1,389.44,54.82Z"/><path class="cls-1" d="M25.16,35.82h2L20.77,54.58H18.84L13.56,38.15,8.23,54.58H6.32L0,35.82H2l5.33,16.8,5.31-16.8h1.87l5.33,16.8Z"/><path class="cls-1" d="M39.09,42.56a8,8,0,0,1,1.58,5.59H29a5.42,5.42,0,0,0,1.66,3.63,5.15,5.15,0,0,0,3.65,1.38,6.25,6.25,0,0,0,2.49-.49,5.61,5.61,0,0,0,2-1.36l1,1A7,7,0,0,1,37.31,54a8.07,8.07,0,0,1-3.15.6,7.2,7.2,0,0,1-3.62-.9,6.45,6.45,0,0,1-2.47-2.5,7.91,7.91,0,0,1,0-7.33,6.44,6.44,0,0,1,2.47-2.52,7.12,7.12,0,0,1,3.57-.9A6.09,6.09,0,0,1,39.09,42.56Zm0,4.19a5.14,5.14,0,0,0-1.46-3.49A4.76,4.76,0,0,0,34.14,42a5,5,0,0,0-3.54,1.31A5.3,5.3,0,0,0,29,46.75Z"/><path class="cls-1" d="M45.24,35a1.18,1.18,0,0,1,.34.87,2.63,2.63,0,0,1-.3,1l-1.34,3H42.87l1.05-3a1.05,1.05,0,0,1-.5-.43,1.16,1.16,0,0,1-.17-.62,1.22,1.22,0,0,1,.33-.86,1.2,1.2,0,0,1,1.66,0Z"/><path class="cls-1" d="M53.36,41.35a5.82,5.82,0,0,1,3.12-.87v1.69a4.83,4.83,0,0,0-3.58,1.3,5.53,5.53,0,0,0-1.54,3.6v7.51H49.57v-14h1.79v3.27A5.41,5.41,0,0,1,53.36,41.35Z"/><path class="cls-1" d="M69.82,42.56a8,8,0,0,1,1.59,5.59H59.7a5.38,5.38,0,0,0,1.66,3.63A5.11,5.11,0,0,0,65,53.16a6.25,6.25,0,0,0,2.49-.49,5.74,5.74,0,0,0,2-1.36l1,1A6.87,6.87,0,0,1,68,54a8,8,0,0,1-3.15.6,7.16,7.16,0,0,1-3.61-.9,6.41,6.41,0,0,1-2.48-2.5,7.91,7.91,0,0,1,0-7.33,6.39,6.39,0,0,1,2.48-2.52,7.06,7.06,0,0,1,3.56-.9A6.09,6.09,0,0,1,69.82,42.56Zm0,4.19a5.14,5.14,0,0,0-1.46-3.49A4.74,4.74,0,0,0,64.87,42a5,5,0,0,0-3.54,1.31,5.25,5.25,0,0,0-1.63,3.48Z"/><path class="cls-1" d="M94.58,40.54v14H92.76V51.23a5.32,5.32,0,0,1-2.08,2.52,6.39,6.39,0,0,1-3.33.88,5.18,5.18,0,0,1-3.9-1.46,5.52,5.52,0,0,1-1.41-4V40.54h1.82v8.2A4.25,4.25,0,0,0,85,51.83a4,4,0,0,0,3,1.11,4.45,4.45,0,0,0,3.53-1.54,5.92,5.92,0,0,0,1.29-4V40.54Z"/><path class="cls-1" d="M110.83,41.38a6.2,6.2,0,0,1,2.4,2.52,7.78,7.78,0,0,1,.86,3.68,7.65,7.65,0,0,1-.86,3.65,6.3,6.3,0,0,1-2.38,2.5,6.74,6.74,0,0,1-3.49.9,6.41,6.41,0,0,1-3.37-.87,5.87,5.87,0,0,1-2.25-2.43v8.45h-1.8V40.54h1.8v3.24A5.7,5.7,0,0,1,104,41.35a6.47,6.47,0,0,1,3.36-.87A6.81,6.81,0,0,1,110.83,41.38Zm-1.11,11a5,5,0,0,0,1.88-2,6.11,6.11,0,0,0,.67-2.87,6,6,0,0,0-.67-2.84,5,5,0,0,0-1.88-2,5.55,5.55,0,0,0-5.43,0,5,5,0,0,0-1.87,2,5.82,5.82,0,0,0-.68,2.84,6,6,0,0,0,.67,2.87,4.93,4.93,0,0,0,1.87,2,5.57,5.57,0,0,0,5.44,0Z"/><path class="cls-1" d="M130.67,34.7V54.58h-1.79V51.36a5.93,5.93,0,0,1-2.25,2.45,6.44,6.44,0,0,1-3.38.87,6.86,6.86,0,0,1-3.54-.91,6.22,6.22,0,0,1-2.41-2.54,7.85,7.85,0,0,1-.85-3.7,7.57,7.57,0,0,1,.87-3.67,6.42,6.42,0,0,1,2.41-2.52,6.68,6.68,0,0,1,3.49-.91,6.39,6.39,0,0,1,3.39.88,6,6,0,0,1,2.27,2.47V34.7Zm-4.36,17.72a5,5,0,0,0,1.88-2,5.89,5.89,0,0,0,.69-2.87,6,6,0,0,0-.69-2.88,5.07,5.07,0,0,0-1.88-2,5.18,5.18,0,0,0-2.74-.73,5.12,5.12,0,0,0-2.73.73,5.2,5.2,0,0,0-1.9,2,5.85,5.85,0,0,0-.7,2.88,6,6,0,0,0,.68,2.87,5,5,0,0,0,1.91,2,5.64,5.64,0,0,0,5.48,0Z"/><path class="cls-1" d="M144.87,54.58l0-2.36a5.13,5.13,0,0,1-2.17,1.83,7.35,7.35,0,0,1-3.09.61,5.54,5.54,0,0,1-2.5-.55,4,4,0,0,1-1.67-1.52,4,4,0,0,1-.59-2.17,3.35,3.35,0,0,1,1.4-2.86,6.35,6.35,0,0,1,3.87-1.05h4.72V45.44a3.32,3.32,0,0,0-1-2.57,4.13,4.13,0,0,0-2.9-.91,7.53,7.53,0,0,0-4.52,1.69l-.81-1.24A11.91,11.91,0,0,1,138.31,41a8.65,8.65,0,0,1,2.95-.47,5.64,5.64,0,0,1,3.94,1.28,4.63,4.63,0,0,1,1.42,3.52l0,9.3Zm-1.78-2.29a4.29,4.29,0,0,0,1.76-2.46V47.9h-4.53a5.31,5.31,0,0,0-2.82.62,2.05,2.05,0,0,0-1,1.85,2.5,2.5,0,0,0,.92,2,3.75,3.75,0,0,0,2.46.77A5.57,5.57,0,0,0,143.09,52.29Z"/><path class="cls-1" d="M158.51,53.61a5.77,5.77,0,0,1-3.11,1,3.32,3.32,0,0,1-2.54-1,4.18,4.18,0,0,1-.94-3V42.33h-2l0-1.39h2V37.32h1.8v3.62l4.55,0v1.42h-4.55V50.4c0,1.73.64,2.6,1.92,2.6a4.63,4.63,0,0,0,2.34-.75Z"/><path class="cls-1" d="M163.55,35.59a1.33,1.33,0,0,1,0,1.81,1.22,1.22,0,0,1-1.77,0,1.26,1.26,0,0,1-.36-.91,1.23,1.23,0,0,1,1.25-1.26A1.18,1.18,0,0,1,163.55,35.59Zm-1.8,4.95h1.8v14h-1.8Z"/><path class="cls-1" d="M180.07,41.94a5.51,5.51,0,0,1,1.43,4v8.63h-1.82v-8.2a4.28,4.28,0,0,0-1.1-3.11,4.07,4.07,0,0,0-3.05-1.13,4.77,4.77,0,0,0-3.47,1.34A5.48,5.48,0,0,0,170.57,47v7.56h-1.8v-14h1.8v3.27a5.19,5.19,0,0,1,2.13-2.47,6.87,6.87,0,0,1,3.42-.86A5.31,5.31,0,0,1,180.07,41.94Z"/><path class="cls-1" d="M198.43,40.54V53.1a7.2,7.2,0,0,1-.85,3.57A5.73,5.73,0,0,1,195.12,59a7.89,7.89,0,0,1-3.68.82,9,9,0,0,1-5.76-2.14l.86-1.29a8,8,0,0,0,2.25,1.42,6.72,6.72,0,0,0,2.57.48,5.26,5.26,0,0,0,3.85-1.41,5,5,0,0,0,1.43-3.76V50.85a5.68,5.68,0,0,1-2.14,2.31,6.2,6.2,0,0,1-3.22.83,6.42,6.42,0,0,1-3.34-.87,6,6,0,0,1-2.27-2.42,7.25,7.25,0,0,1-.82-3.49,7.16,7.16,0,0,1,.82-3.48A5.92,5.92,0,0,1,188,41.34a6.55,6.55,0,0,1,3.35-.86,6.18,6.18,0,0,1,3.19.82,5.72,5.72,0,0,1,2.14,2.32V40.54ZM194.2,51.86A4.81,4.81,0,0,0,196,50a6.1,6.1,0,0,0,0-5.44,4.81,4.81,0,0,0-1.8-1.89,5,5,0,0,0-7,1.89,5.68,5.68,0,0,0-.65,2.73,5.61,5.61,0,0,0,.65,2.72,4.93,4.93,0,0,0,1.8,1.88,5.33,5.33,0,0,0,5.21,0Z"/><path class="cls-1" d="M217.75,53.61a5.77,5.77,0,0,1-3.11,1,3.32,3.32,0,0,1-2.54-1,4.18,4.18,0,0,1-.94-3V42.33h-2l0-1.39h2V37.32H213v3.62l4.55,0v1.42H213V50.4c0,1.73.64,2.6,1.93,2.6a4.63,4.63,0,0,0,2.33-.75Z"/><path class="cls-1" d="M232.45,41.94a5.51,5.51,0,0,1,1.43,4v8.63h-1.82v-8.2a4.28,4.28,0,0,0-1.1-3.11,4.07,4.07,0,0,0-3.05-1.13,4.69,4.69,0,0,0-3.66,1.55,5.85,5.85,0,0,0-1.33,4v6.89h-1.79V34.7h1.79v9.16c1-2.22,2.81-3.34,5.58-3.38A5.3,5.3,0,0,1,232.45,41.94Z"/><path class="cls-1" d="M240.47,35.59a1.21,1.21,0,0,1,.35.9,1.26,1.26,0,0,1-.36.91,1.17,1.17,0,0,1-.87.38,1.2,1.2,0,0,1-.9-.38,1.26,1.26,0,0,1-.36-.91,1.23,1.23,0,0,1,1.26-1.26A1.16,1.16,0,0,1,240.47,35.59Zm-1.79,4.95h1.79v14h-1.79Z"/><path class="cls-1" d="M251.16,42.24a7,7,0,0,0-1.95-.28,4,4,0,0,0-2.16.52,1.75,1.75,0,0,0-.82,1.57,1.62,1.62,0,0,0,.45,1.18,3.26,3.26,0,0,0,1.09.73,16.41,16.41,0,0,0,1.84.63,18.46,18.46,0,0,1,2.36.85,4.12,4.12,0,0,1,1.55,1.2,3.19,3.19,0,0,1,.65,2.08,3.34,3.34,0,0,1-1.45,2.91,6.2,6.2,0,0,1-3.62,1,8.68,8.68,0,0,1-2.95-.51,6.48,6.48,0,0,1-2.38-1.45l.72-1.28a7.17,7.17,0,0,0,4.69,1.79,4.1,4.1,0,0,0,2.32-.59,1.91,1.91,0,0,0,.9-1.71,1.77,1.77,0,0,0-.46-1.27,3.13,3.13,0,0,0-1.14-.78q-.68-.28-1.89-.66a18,18,0,0,1-2.3-.83,4.05,4.05,0,0,1-1.5-1.16,3.1,3.1,0,0,1-.62-2,3.16,3.16,0,0,1,1.38-2.79,6,6,0,0,1,3.45-.93,8.25,8.25,0,0,1,2.33.32,7.65,7.65,0,0,1,2,.88L253,43A6.83,6.83,0,0,0,251.16,42.24Z"/><path class="cls-1" d="M258.56,52.7a1.18,1.18,0,0,1,.35.86,1.22,1.22,0,0,1-.35.87,1.15,1.15,0,0,1-.86.36,1.12,1.12,0,0,1-.84-.35,1.18,1.18,0,0,1-.34-.88,1.17,1.17,0,0,1,.34-.86,1.12,1.12,0,0,1,.84-.35A1.18,1.18,0,0,1,258.56,52.7Z"/><path class="cls-1" d="M45.42,70.09a7.89,7.89,0,0,0-3.06-.62,7.79,7.79,0,0,0-4,1,7.92,7.92,0,0,0-2.87,2.85,7.77,7.77,0,0,0-1,4,7.64,7.64,0,0,0,1,3.93,8,8,0,0,0,2.87,2.86,7.93,7.93,0,0,0,7,.45A8.55,8.55,0,0,0,48,82.9l1.13,1.2a10.73,10.73,0,0,1-3.19,2,9.45,9.45,0,0,1-3.67.75,9.64,9.64,0,0,1-8.4-4.77,9.19,9.19,0,0,1-1.3-4.79,9.05,9.05,0,0,1,1.31-4.77,9.93,9.93,0,0,1,15.22-2L48,71.81A8.09,8.09,0,0,0,45.42,70.09Z"/><path class="cls-1" d="M64.32,74.1a5.48,5.48,0,0,1,1.43,4v8.63H63.93v-8.2a4.28,4.28,0,0,0-1.1-3.11,4.06,4.06,0,0,0-3-1.12,4.68,4.68,0,0,0-3.66,1.54,5.87,5.87,0,0,0-1.33,4v6.89H53V66.85h1.79V76c1-2.21,2.81-3.34,5.58-3.37A5.28,5.28,0,0,1,64.32,74.1Z"/><path class="cls-1" d="M81,74.71a8,8,0,0,1,1.58,5.59H70.87a5.38,5.38,0,0,0,1.66,3.63,5.13,5.13,0,0,0,3.64,1.38,6.44,6.44,0,0,0,2.5-.48,5.72,5.72,0,0,0,2-1.37l1,1a7.05,7.05,0,0,1-2.45,1.7,8.11,8.11,0,0,1-3.15.6,7.17,7.17,0,0,1-3.62-.89A6.5,6.5,0,0,1,70,83.38a7.91,7.91,0,0,1,0-7.33,6.46,6.46,0,0,1,2.48-2.52A7.15,7.15,0,0,1,76,72.64,6.12,6.12,0,0,1,81,74.71Zm0,4.2a5.16,5.16,0,0,0-1.46-3.5A4.72,4.72,0,0,0,76,74.11a5,5,0,0,0-3.54,1.31,5.29,5.29,0,0,0-1.63,3.49Z"/><path class="cls-1" d="M91.9,74.22a5.32,5.32,0,0,0-2.7.69,4.9,4.9,0,0,0-1.88,2,5.88,5.88,0,0,0-.67,2.85,6,6,0,0,0,.67,2.87,4.77,4.77,0,0,0,1.88,2,5.23,5.23,0,0,0,2.7.7,6.42,6.42,0,0,0,2.51-.48,5,5,0,0,0,1.91-1.4l1,1.08A6.19,6.19,0,0,1,95,86.17a7.85,7.85,0,0,1-3.16.61,7.14,7.14,0,0,1-3.59-.89,6.46,6.46,0,0,1-2.48-2.52,8,8,0,0,1,0-7.32,6.46,6.46,0,0,1,2.48-2.52,7.24,7.24,0,0,1,3.59-.89,8.2,8.2,0,0,1,3,.53,6.93,6.93,0,0,1,2.32,1.5l-1,1.21A5.81,5.81,0,0,0,91.9,74.22Z"/><path class="cls-1" d="M111.43,86.73l-5-7.31-3.16,3.24v4.07h-1.8V66.85h1.8v13.5l7.56-7.66H113l-5.28,5.44,5.9,8.6Z"/><path class="cls-1" d="M135,73.53a6.24,6.24,0,0,1,2.39,2.52,7.67,7.67,0,0,1,.86,3.69,7.53,7.53,0,0,1-.86,3.64A6.26,6.26,0,0,1,135,85.89a6.73,6.73,0,0,1-3.48.89,6.44,6.44,0,0,1-3.38-.87,6,6,0,0,1-2.25-2.42v3.24h-1.8V66.85h1.8v9.08a5.76,5.76,0,0,1,2.24-2.42,6.42,6.42,0,0,1,3.36-.87A6.93,6.93,0,0,1,135,73.53Zm-1.12,11a4.89,4.89,0,0,0,1.88-2,6.42,6.42,0,0,0,0-5.71,5,5,0,0,0-1.88-2,5.53,5.53,0,0,0-5.42,0,5.09,5.09,0,0,0-1.88,2,6.37,6.37,0,0,0,0,5.71,4.89,4.89,0,0,0,1.88,2,5.29,5.29,0,0,0,2.73.71A5.23,5.23,0,0,0,133.83,84.52Z"/><path class="cls-1" d="M150.82,86.73l0-2.36a5,5,0,0,1-2.17,1.84,7.46,7.46,0,0,1-3.08.6,5.41,5.41,0,0,1-2.5-.55,4,4,0,0,1-1.68-1.51,4.13,4.13,0,0,1-.59-2.17,3.38,3.38,0,0,1,1.41-2.87,6.35,6.35,0,0,1,3.87-1h4.72V77.59a3.33,3.33,0,0,0-1-2.57,4.13,4.13,0,0,0-2.9-.91,7.58,7.58,0,0,0-4.53,1.69l-.8-1.23a11.53,11.53,0,0,1,2.71-1.46,8.36,8.36,0,0,1,2.94-.47,5.62,5.62,0,0,1,3.94,1.27,4.61,4.61,0,0,1,1.42,3.52l0,9.3ZM149,84.44A4.24,4.24,0,0,0,150.79,82V80.06h-4.52a5.3,5.3,0,0,0-2.82.61,2.07,2.07,0,0,0-1,1.85,2.52,2.52,0,0,0,.92,2,3.75,3.75,0,0,0,2.46.76A5.57,5.57,0,0,0,149,84.44Z"/><path class="cls-1" d="M163,74.22a5.38,5.38,0,0,0-2.71.69,4.88,4.88,0,0,0-1.87,2,5.88,5.88,0,0,0-.67,2.85,6,6,0,0,0,.67,2.87,4.75,4.75,0,0,0,1.87,2,5.29,5.29,0,0,0,2.71.7,6.33,6.33,0,0,0,2.5-.48,5.08,5.08,0,0,0,1.92-1.4l1,1.08A6.27,6.27,0,0,1,166,86.17a7.88,7.88,0,0,1-3.16.61,7.11,7.11,0,0,1-3.59-.89,6.39,6.39,0,0,1-2.48-2.52,7.89,7.89,0,0,1,0-7.32,6.39,6.39,0,0,1,2.48-2.52,7.21,7.21,0,0,1,3.59-.89,8.24,8.24,0,0,1,3,.53,6.79,6.79,0,0,1,2.31,1.5l-1,1.21A5.82,5.82,0,0,0,163,74.22Z"/><path class="cls-1" d="M182.49,86.73l-5-7.31-3.16,3.24v4.07h-1.8V66.85h1.8v13.5l7.55-7.66h2.15l-5.28,5.44,5.89,8.6Z"/><path class="cls-1" d="M200.44,74.39a7,7,0,0,0-1.95-.28,4,4,0,0,0-2.16.52,1.75,1.75,0,0,0-.82,1.57,1.61,1.61,0,0,0,.45,1.18,3.44,3.44,0,0,0,1.09.74c.44.18,1,.39,1.84.63a17.67,17.67,0,0,1,2.36.84,4.33,4.33,0,0,1,1.55,1.21,3.14,3.14,0,0,1,.64,2.07A3.33,3.33,0,0,1,202,85.78a6.2,6.2,0,0,1-3.62,1,8.92,8.92,0,0,1-2.95-.5,6.62,6.62,0,0,1-2.38-1.45l.72-1.29a7.25,7.25,0,0,0,4.69,1.8,4.18,4.18,0,0,0,2.32-.59,1.93,1.93,0,0,0,.9-1.72,1.82,1.82,0,0,0-.46-1.27,3.13,3.13,0,0,0-1.14-.78c-.45-.18-1.08-.4-1.89-.65a21.78,21.78,0,0,1-2.3-.83,4.08,4.08,0,0,1-1.5-1.17,3.08,3.08,0,0,1-.62-2,3.13,3.13,0,0,1,1.38-2.78,6,6,0,0,1,3.44-.94,8.69,8.69,0,0,1,2.34.32,7.45,7.45,0,0,1,2,.89l-.69,1.36A7,7,0,0,0,200.44,74.39Z"/><path class="cls-1" d="M216.28,73.53A6.54,6.54,0,0,1,218.8,76a7.34,7.34,0,0,1,.91,3.64,7.47,7.47,0,0,1-.91,3.69,6.49,6.49,0,0,1-2.52,2.52,7.91,7.91,0,0,1-7.29,0,6.49,6.49,0,0,1-2.52-2.52,7.37,7.37,0,0,1-.91-3.69,7.23,7.23,0,0,1,.91-3.64A6.54,6.54,0,0,1,209,73.53a7.91,7.91,0,0,1,7.29,0Zm-6.38,1.36a4.75,4.75,0,0,0-1.87,2,6.52,6.52,0,0,0,0,5.76,4.78,4.78,0,0,0,1.87,2,5.69,5.69,0,0,0,5.47,0,4.78,4.78,0,0,0,1.87-2,6.52,6.52,0,0,0,0-5.76,4.75,4.75,0,0,0-1.87-2,5.69,5.69,0,0,0-5.47,0Z"/><path class="cls-1" d="M232.78,73.53A6.47,6.47,0,0,1,235.3,76a7.23,7.23,0,0,1,.91,3.64,7.37,7.37,0,0,1-.91,3.69,6.43,6.43,0,0,1-2.52,2.52,7.89,7.89,0,0,1-7.28,0A6.36,6.36,0,0,1,223,83.37a7.37,7.37,0,0,1-.91-3.69A7.23,7.23,0,0,1,223,76a6.4,6.4,0,0,1,2.52-2.51,7.89,7.89,0,0,1,7.28,0Zm-6.37,1.36a4.77,4.77,0,0,0-1.88,2,6.52,6.52,0,0,0,0,5.76,4.8,4.8,0,0,0,1.88,2,5.67,5.67,0,0,0,5.46,0,4.8,4.8,0,0,0,1.88-2,6.52,6.52,0,0,0,0-5.76,4.77,4.77,0,0,0-1.88-2,5.67,5.67,0,0,0-5.46,0Z"/><path class="cls-1" d="M251.31,74.1a5.45,5.45,0,0,1,1.44,4v8.63h-1.83v-8.2a4.24,4.24,0,0,0-1.1-3.11,4.06,4.06,0,0,0-3-1.12,4.74,4.74,0,0,0-3.47,1.34,5.48,5.48,0,0,0-1.49,3.53v7.56H240v-14h1.79V76a5.23,5.23,0,0,1,2.13-2.47,6.77,6.77,0,0,1,3.42-.85A5.24,5.24,0,0,1,251.31,74.1Z"/><path class="cls-1" d="M258.67,84.85a1.18,1.18,0,0,1,.34.86,1.21,1.21,0,0,1-.34.87,1.16,1.16,0,0,1-.86.36,1.15,1.15,0,0,1-.85-.34,1.26,1.26,0,0,1-.33-.89,1.22,1.22,0,0,1,.33-.86,1.15,1.15,0,0,1,.85-.34A1.18,1.18,0,0,1,258.67,84.85ZM257,68.32h1.74v4.5l-.26,8.42h-1.24L257,72.82Z"/></g></g></svg>